<svg width="41" height="17" viewBox="0 0 41 17" fill="none" xmlns="http://www.w3.org/2000/svg">
<path d="M12.44 2.68C12.68 2.968 12.848 3.2 12.944 3.376C13.04 3.552 13.088 3.72 13.088 3.88C13.088 4.072 12.96 4.296 12.704 4.552C12.464 4.808 12.224 4.936 11.984 4.936C11.664 4.936 11.408 4.888 11.216 4.792C11.024 4.696 10.864 4.544 10.736 4.336C10.48 3.952 10.168 3.624 9.8 3.352C9.432 3.064 8.856 2.92 8.072 2.92C7.4 2.92 6.632 3.072 5.768 3.376C4.92 3.68 4.312 4.056 3.944 4.504C3.624 4.904 3.344 5.512 3.104 6.328C2.88 7.144 2.768 7.936 2.768 8.704C2.768 9.632 2.968 10.488 3.368 11.272C3.784 12.04 4.376 12.656 5.144 13.12C5.928 13.584 6.864 13.816 7.952 13.816C8.544 13.816 9.152 13.704 9.776 13.48C10.416 13.24 10.968 12.856 11.432 12.328H11.408C11.696 12.024 12.056 11.872 12.488 11.872C12.744 11.872 12.984 11.984 13.208 12.208C13.448 12.432 13.568 12.656 13.568 12.88C13.568 13.12 13.528 13.336 13.448 13.528C13.384 13.704 13.256 13.904 13.064 14.128C12.408 14.864 11.632 15.368 10.736 15.64C9.84 15.912 8.768 16.048 7.52 16.048C6.416 16.048 5.296 15.784 4.16 15.256C3.04 14.728 2.176 14.088 1.568 13.336C1.248 12.872 0.936 12.208 0.632 11.344C0.344 10.464 0.2 9.752 0.2 9.208C0.2 7.816 0.408 6.496 0.824 5.248C1.256 3.984 1.896 2.976 2.744 2.224C3.304 1.712 4.112 1.328 5.168 1.072C6.224 0.816 7.192 0.688 8.072 0.688C9.144 0.688 9.984 0.84 10.592 1.144C11.216 1.432 11.832 1.944 12.44 2.68ZM26.9259 11.872C26.9259 12.624 26.7659 13.232 26.4459 13.696C26.1259 14.16 25.5739 14.616 24.7899 15.064C24.2619 15.384 23.6539 15.632 22.9659 15.808C22.2779 15.968 21.5819 16.048 20.8779 16.048C20.4459 16.048 19.9419 15.968 19.3659 15.808C18.8059 15.632 18.3499 15.464 17.9979 15.304L17.5899 14.944C16.8699 14.352 16.3659 13.88 16.0779 13.528C15.8059 13.16 15.6699 12.712 15.6699 12.184C15.6699 11.768 15.7659 11.456 15.9579 11.248C16.1499 11.04 16.4619 10.936 16.8939 10.936C17.1179 10.936 17.3259 11.008 17.5179 11.152C17.7099 11.296 17.8779 11.496 18.0219 11.752C18.4219 12.456 18.8939 12.976 19.4379 13.312C19.9979 13.632 20.6539 13.792 21.4059 13.792C22.1099 13.792 22.8219 13.576 23.5419 13.144C24.1339 12.776 24.4299 12.416 24.4299 12.064C24.4299 11.44 24.1499 10.92 23.5899 10.504C23.0459 10.088 22.2619 9.712 21.2379 9.376C20.6139 9.152 19.6779 8.736 18.4299 8.128C17.5819 7.712 16.9499 7.2 16.5339 6.592C16.1179 5.984 15.9099 5.344 15.9099 4.672C15.9099 4.064 16.1179 3.472 16.5339 2.896C16.9659 2.304 17.4859 1.864 18.0939 1.576C18.4139 1.416 18.9259 1.248 19.6299 1.072C20.3339 0.88 20.8619 0.784 21.2139 0.784C21.8699 0.784 22.4379 0.864 22.9179 1.024C23.3979 1.168 23.8699 1.376 24.3339 1.648C25.0379 2.048 25.5579 2.408 25.8939 2.728C26.2299 3.048 26.3979 3.448 26.3979 3.928C26.3979 4.216 26.2859 4.472 26.0619 4.696C25.8539 4.92 25.4859 5.032 24.9579 5.032C24.8299 5.032 24.7019 4.976 24.5739 4.864C24.4459 4.752 24.2859 4.584 24.0939 4.36C23.8379 4.024 23.5899 3.8 23.3499 3.688C23.2859 3.672 23.0219 3.568 22.5579 3.376C22.1099 3.184 21.5499 3.088 20.8779 3.088C20.2379 3.088 19.6699 3.24 19.1739 3.544C18.6779 3.832 18.4299 4.256 18.4299 4.816C18.4299 5.376 18.9339 5.832 19.9419 6.184C21.0139 6.6 21.9019 6.96 22.6059 7.264C23.3259 7.568 24.0219 7.928 24.6939 8.344C25.4619 8.808 26.0219 9.296 26.3739 9.808C26.7419 10.32 26.9259 11.008 26.9259 11.872ZM40.4024 11.656C40.4024 12.408 40.2264 13.056 39.8744 13.6C39.5384 14.128 38.9784 14.616 38.1944 15.064C37.6664 15.384 37.0504 15.624 36.3464 15.784C35.6424 15.944 34.9304 16.024 34.2104 16.024C33.4744 16.024 32.5624 15.784 31.4744 15.304C30.6904 14.92 30.0664 14.464 29.6024 13.936C29.1544 13.408 28.9304 12.832 28.9304 12.208C28.9304 11.776 29.0264 11.464 29.2184 11.272C29.4104 11.064 29.7224 10.96 30.1544 10.96C30.3784 10.96 30.6104 11.056 30.8504 11.248C31.0904 11.424 31.2344 11.6 31.2824 11.776C31.5064 12.432 31.8984 12.936 32.4584 13.288C33.0184 13.624 33.7144 13.792 34.5464 13.792C35.5064 13.792 36.3064 13.616 36.9464 13.264C37.6024 12.912 37.9304 12.44 37.9304 11.848C37.9304 11.272 37.5784 10.76 36.8744 10.312C36.1704 9.864 35.4504 9.552 34.7144 9.376C33.6584 9.088 32.7224 8.744 31.9064 8.344C31.0584 7.928 30.4264 7.416 30.0104 6.808C29.5944 6.2 29.3864 5.56 29.3864 4.888C29.3864 4.264 29.6024 3.632 30.0344 2.992C30.4664 2.336 30.9784 1.864 31.5704 1.576C31.8904 1.416 32.4344 1.248 33.2024 1.072C33.9864 0.88 34.5544 0.784 34.9064 0.784C35.3544 0.784 35.8264 0.84 36.3224 0.951999C36.8184 1.064 37.2424 1.224 37.5944 1.432C38.2984 1.832 38.8184 2.192 39.1544 2.512C39.4904 2.832 39.6584 3.232 39.6584 3.712C39.6584 4 39.5464 4.256 39.3224 4.48C39.1144 4.704 38.7464 4.816 38.2184 4.816C38.0904 4.816 37.9624 4.76 37.8344 4.648C37.7064 4.536 37.5464 4.368 37.3544 4.144C37.0984 3.808 36.8504 3.584 36.6104 3.472C36.3544 3.376 36.0344 3.288 35.6504 3.208C35.2664 3.112 34.9064 3.064 34.5704 3.064C34.1864 3.064 33.7864 3.144 33.3704 3.304C32.9544 3.464 32.6024 3.696 32.3144 4C32.0424 4.288 31.9064 4.624 31.9064 5.008C31.9064 5.328 32.0504 5.608 32.3384 5.848C32.6424 6.072 33.0024 6.256 33.4184 6.4C33.8984 6.592 34.4184 6.76 34.9784 6.904C35.7144 7.128 36.3144 7.336 36.7784 7.528C37.2584 7.704 37.7224 7.928 38.1704 8.2C38.9544 8.664 39.5224 9.144 39.8744 9.64C40.2264 10.12 40.4024 10.792 40.4024 11.656Z" fill="white"/>
</svg>
