<svg width="54" height="80" viewBox="0 0 54 80" fill="none" xmlns="http://www.w3.org/2000/svg">
<path d="M26.6699 39.9993C26.6699 32.6357 32.6393 26.666 40.0031 26.666C47.3667 26.666 53.3363 32.6357 53.3363 39.9993C53.3363 47.3632 47.3667 53.3326 40.0031 53.3326C32.6393 53.3326 26.6699 47.3632 26.6699 39.9993Z" fill="#1ABCFE"/>
<path d="M0 66.6663C0 59.3027 5.96945 53.333 13.3332 53.333H26.6663V66.6663C26.6663 74.0302 20.6969 79.9996 13.3332 79.9996C5.96945 79.9996 0 74.0302 0 66.6663Z" fill="#0ACF83"/>
<path d="M26.6699 0V26.6665H40.0031C47.3669 26.6665 53.3363 20.6971 53.3363 13.3333C53.3363 5.96953 47.3669 0 40.0031 0H26.6699Z" fill="#FF7262"/>
<path d="M0 13.3333C0 20.6971 5.96945 26.6665 13.3332 26.6665H26.6663V0H13.3332C5.96945 0 0 5.96952 0 13.3333Z" fill="#F24E1E"/>
<path d="M0 39.9993C0 47.3632 5.96945 53.3326 13.3332 53.3326H26.6663V26.666H13.3332C5.96945 26.666 0 32.6357 0 39.9993Z" fill="#A259FF"/>
</svg>
