<svg width="85" height="18" viewBox="0 0 85 18" fill="none" xmlns="http://www.w3.org/2000/svg">
<path d="M3.44 16.136C3.392 16.376 3.248 16.584 3.008 16.76C2.784 16.92 2.464 17 2.048 17C1.696 17 1.416 16.904 1.208 16.712C1.016 16.52 0.912 16.32 0.896 16.112C0.992 15.44 1.04 14.432 1.04 13.088C1.04 12.288 0.992 11.056 0.896 9.392C0.784 7.824 0.728 6.432 0.728 5.216C0.728 4.56 0.76 3.888 0.824 3.2C0.824 2.976 0.952 2.736 1.208 2.48C1.48 2.224 1.848 2.064 2.312 2C3.832 1.84 5.696 1.76 7.904 1.76H8.672C9.248 1.76 9.808 1.864 10.352 2.072C10.912 2.28 11.192 2.64 11.192 3.152C11.192 3.488 11.112 3.752 10.952 3.944C10.792 4.136 10.496 4.232 10.064 4.232C9.856 4.232 9.616 4.216 9.344 4.184C9.072 4.152 8.88 4.128 8.768 4.112C8.16 4.016 7.688 3.968 7.352 3.968C5.496 3.968 4.096 4.096 3.152 4.352C3.152 4.88 3.168 5.736 3.2 6.92L3.224 8.456C4.056 8.456 4.8 8.424 5.456 8.36C6.112 8.28 6.488 8.232 6.584 8.216C7.416 8.12 7.968 8.072 8.24 8.072C8.624 8.072 8.944 8.16 9.2 8.336C9.472 8.496 9.608 8.752 9.608 9.104C9.608 9.904 9.048 10.304 7.928 10.304C7.656 10.304 7.416 10.312 7.208 10.328C7 10.344 6.824 10.36 6.68 10.376C6.104 10.44 5.648 10.472 5.312 10.472C4.576 10.472 3.952 10.496 3.44 10.544C3.44 11.136 3.464 11.76 3.512 12.416C3.512 12.624 3.52 12.944 3.536 13.376C3.568 13.808 3.584 14.2 3.584 14.552C3.584 14.856 3.576 15.136 3.56 15.392C3.544 15.648 3.504 15.896 3.44 16.136ZM13.8007 1.592C14.3607 1.64 14.8487 1.792 15.2647 2.048C15.6807 2.288 15.8887 2.656 15.8887 3.152C15.8887 3.52 15.7127 3.816 15.3607 4.04C15.0247 4.248 14.6167 4.352 14.1367 4.352C13.6727 4.352 13.3527 4.232 13.1767 3.992C13.0007 3.752 12.9127 3.504 12.9127 3.248C12.9127 2.768 12.9607 2.368 13.0567 2.048C13.1687 1.728 13.4167 1.576 13.8007 1.592ZM15.7207 12.224V12.92C15.7207 13.544 15.7367 14.136 15.7687 14.696C15.8167 15.24 15.8727 15.792 15.9367 16.352C15.9207 16.512 15.8007 16.68 15.5767 16.856C15.3527 17.016 15.1527 17.096 14.9767 17.096C14.6727 17.096 14.3607 17.04 14.0407 16.928C13.7367 16.8 13.5527 16.648 13.4887 16.472C13.3927 15.96 13.3447 15.504 13.3447 15.104C13.3447 13.792 13.3047 12.32 13.2247 10.688C13.1607 9.248 13.1287 8.24 13.1287 7.664C13.1287 7.376 13.2727 7.128 13.5607 6.92C13.8487 6.712 14.1527 6.608 14.4727 6.608C14.9367 6.608 15.2567 6.712 15.4327 6.92C15.6247 7.128 15.7207 7.456 15.7207 7.904V12.224ZM22.2693 16.04C22.2693 16.312 22.1653 16.552 21.9573 16.76C21.7493 16.968 21.4933 17.072 21.1893 17.072C20.7093 17.072 20.3573 16.984 20.1333 16.808C19.9093 16.616 19.7973 16.272 19.7973 15.776C19.7973 15.184 19.7813 14.408 19.7493 13.448C19.7173 12.648 19.7013 11.976 19.7013 11.432C19.7013 11.176 19.7173 10.84 19.7493 10.424C19.7813 10.04 19.7973 9.752 19.7973 9.56C19.7493 9.256 19.6293 9.008 19.4373 8.816C19.2453 8.608 18.9973 8.504 18.6933 8.504C18.5493 8.504 18.4293 8.44 18.3333 8.312C18.2373 8.168 18.1893 8.024 18.1893 7.88C18.1893 7.512 18.3333 7.232 18.6213 7.04C18.9253 6.848 19.2853 6.752 19.7013 6.752C20.5653 6.752 21.1653 7.264 21.5013 8.288C21.9173 7.808 22.3893 7.424 22.9173 7.136C23.4613 6.832 23.9813 6.68 24.4773 6.68C25.0693 6.68 25.6053 6.84 26.0853 7.16C26.5813 7.48 26.8293 7.912 26.8293 8.456C26.8293 8.76 26.6933 9.072 26.4213 9.392C26.1653 9.712 25.9013 9.872 25.6293 9.872C25.4853 9.872 25.3573 9.84 25.2453 9.776C25.1493 9.696 25.0293 9.584 24.8853 9.44C24.7253 9.28 24.5893 9.168 24.4773 9.104C24.3653 9.024 24.2373 8.984 24.0933 8.984C23.8373 8.984 23.5973 9.024 23.3733 9.104C23.1493 9.184 22.9973 9.28 22.9173 9.392C22.6613 9.792 22.4693 10.152 22.3413 10.472C22.2293 10.792 22.1733 11.136 22.1733 11.504C22.1733 11.776 22.1653 11.992 22.1493 12.152L22.1253 13.52C22.1253 13.728 22.1333 13.96 22.1493 14.216C22.1653 14.472 22.1813 14.664 22.1973 14.792C22.2453 15.224 22.2693 15.64 22.2693 16.04ZM28.0164 11.504C28.0164 10.528 28.2324 9.72 28.6644 9.08C29.0964 8.424 29.6964 7.808 30.4644 7.232C30.6884 7.072 31.0644 6.936 31.5924 6.824C32.1204 6.696 32.5844 6.632 32.9844 6.632C33.4644 6.632 33.9684 6.736 34.4964 6.944C35.0404 7.136 35.4804 7.36 35.8164 7.616C36.4084 8.048 36.8164 8.552 37.0404 9.128C37.2644 9.688 37.3764 10.36 37.3764 11.144C37.3764 11.48 37.1844 11.808 36.8004 12.128C36.4324 12.432 36.0324 12.584 35.6004 12.584L34.6884 12.56C34.2244 12.56 33.5604 12.576 32.6964 12.608L32.1924 12.632C31.8404 12.664 31.5764 12.68 31.4004 12.68C31.1444 12.68 30.7924 12.648 30.3444 12.584C30.4084 13.336 30.6884 13.928 31.1844 14.36C31.6804 14.776 32.2164 14.984 32.7924 14.984C33.8004 14.984 34.5044 14.784 34.9044 14.384C35.2404 14.144 35.4644 13.992 35.5764 13.928C35.6884 13.864 35.8644 13.832 36.1044 13.832C36.3604 13.832 36.5844 13.952 36.7764 14.192C36.9684 14.432 37.0644 14.672 37.0644 14.912C37.0644 15.184 36.8964 15.464 36.5604 15.752C36.2404 16.024 35.8004 16.312 35.2404 16.616C34.9364 16.744 34.5204 16.856 33.9924 16.952C33.4644 17.048 33.0244 17.096 32.6724 17.096C32.1124 17.096 31.4884 16.936 30.8004 16.616C30.1124 16.28 29.6004 15.912 29.2644 15.512C28.9284 15.112 28.6324 14.544 28.3764 13.808C28.1364 13.072 28.0164 12.304 28.0164 11.504ZM32.7924 10.856C33.9284 10.856 34.7604 10.816 35.2884 10.736C35.2564 10.272 35.1124 9.896 34.8564 9.608C34.6004 9.304 34.2484 9.048 33.8004 8.84C33.6564 8.776 33.5284 8.728 33.4164 8.696C33.3044 8.664 33.1764 8.648 33.0324 8.648C32.2964 8.648 31.6724 8.848 31.1604 9.248C30.6644 9.648 30.3684 10.16 30.2724 10.784C31.0724 10.832 31.9124 10.856 32.7924 10.856ZM40.223 12.68C40.223 11.784 40.231 11.104 40.247 10.64L40.271 8.36C40.271 7.432 40.247 6.416 40.199 5.312C40.183 4.976 40.127 4.512 40.031 3.92C39.903 3.024 39.839 2.352 39.839 1.904C39.839 1.168 40.207 0.8 40.943 0.8C41.407 0.8 41.735 0.927999 41.927 1.184C42.135 1.424 42.279 1.808 42.359 2.336C42.519 3.44 42.599 4.736 42.599 6.224C42.599 6.672 42.583 7.344 42.551 8.24C42.855 7.76 43.247 7.384 43.727 7.112C44.223 6.84 44.711 6.704 45.191 6.704C46.583 6.704 47.783 7.28 48.791 8.432C49.063 8.832 49.303 9.312 49.511 9.872C49.735 10.416 49.847 10.888 49.847 11.288C49.847 11.992 49.767 12.64 49.607 13.232C49.463 13.824 49.199 14.4 48.815 14.96C48.431 15.52 47.943 15.976 47.351 16.328C46.775 16.68 46.103 16.856 45.335 16.856C44.663 16.856 44.055 16.72 43.511 16.448C42.983 16.176 42.559 15.816 42.239 15.368C42.159 15.768 41.983 16.168 41.711 16.568C41.439 16.952 41.127 17.144 40.775 17.144C40.487 17.144 40.247 17.072 40.055 16.928C39.863 16.768 39.767 16.536 39.767 16.232C39.767 16.008 39.815 15.728 39.911 15.392C40.007 14.928 40.079 14.504 40.127 14.12C40.191 13.72 40.223 13.24 40.223 12.68ZM44.735 14.864C45.519 14.864 46.175 14.592 46.703 14.048C47.231 13.488 47.495 12.736 47.495 11.792C47.495 10.928 47.263 10.184 46.799 9.56C46.639 9.352 46.407 9.184 46.103 9.056C45.815 8.928 45.527 8.864 45.239 8.864C44.567 8.864 43.999 9.064 43.535 9.464C43.071 9.848 42.807 10.384 42.743 11.072C42.679 12 42.647 12.8 42.647 13.472C42.839 13.84 43.127 14.168 43.511 14.456C43.911 14.728 44.319 14.864 44.735 14.864ZM63.0118 15.848C63.0118 16.2 62.8198 16.496 62.4358 16.736C62.0518 16.976 61.6998 17.096 61.3798 17.096C60.7878 17.096 60.3078 17.024 59.9398 16.88C59.5878 16.72 59.2518 16.432 58.9318 16.016C58.5318 16.384 57.9718 16.664 57.2518 16.856C56.5318 17.032 55.8678 17.12 55.2598 17.12C54.2678 17.12 53.4438 16.856 52.7878 16.328C52.1478 15.784 51.8278 14.992 51.8278 13.952C51.8278 13.504 51.9638 13.056 52.2358 12.608C52.5078 12.144 52.8438 11.776 53.2438 11.504C53.6758 11.216 54.1638 11.024 54.7078 10.928C55.2518 10.816 55.8838 10.76 56.6038 10.76C56.9398 10.76 57.3398 10.824 57.8038 10.952C58.2678 11.08 58.6358 11.216 58.9078 11.36V10.976C58.9078 10.112 58.6918 9.52 58.2598 9.2C57.8438 8.864 57.1718 8.696 56.2438 8.696C55.9558 8.696 55.6918 8.744 55.4518 8.84C55.2278 8.92 54.9638 9.04 54.6598 9.2C54.3718 9.36 54.0998 9.44 53.8438 9.44C53.6198 9.44 53.4038 9.352 53.1958 9.176C52.9878 8.984 52.8838 8.784 52.8838 8.576C52.8838 7.904 53.2998 7.416 54.1318 7.112C54.9798 6.792 55.8438 6.632 56.7238 6.632C57.1718 6.632 57.6838 6.728 58.2598 6.92C58.8358 7.096 59.3238 7.344 59.7238 7.664C60.2038 8.064 60.5718 8.544 60.8278 9.104C61.0998 9.664 61.2358 10.272 61.2358 10.928C61.2358 11.136 61.2198 11.448 61.1878 11.864C61.1558 12.312 61.1398 12.696 61.1398 13.016L61.1158 13.664C61.0838 14.016 61.0678 14.296 61.0678 14.504C61.0678 14.696 61.1318 14.864 61.2598 15.008C61.4038 15.136 61.5718 15.2 61.7638 15.2L62.4358 15.176C62.6118 15.176 62.7478 15.248 62.8438 15.392C62.9558 15.52 63.0118 15.672 63.0118 15.848ZM55.2598 15.224C55.9478 15.224 56.5238 15.152 56.9878 15.008C57.4518 14.864 58.0118 14.6 58.6678 14.216C58.7318 13.944 58.7718 13.584 58.7878 13.136C57.9078 12.72 57.1798 12.512 56.6038 12.512C56.0598 12.512 55.6198 12.536 55.2838 12.584C54.9478 12.616 54.6438 12.752 54.3717 12.992C54.0998 13.232 53.9638 13.616 53.9638 14.144C53.9638 14.448 54.1078 14.704 54.3958 14.912C54.6998 15.12 54.9878 15.224 55.2598 15.224ZM71.3771 11.504C72.0171 11.872 72.4651 12.24 72.7211 12.608C72.9771 12.96 73.1051 13.424 73.1051 14C73.1051 14.576 72.9371 15.088 72.6011 15.536C72.2651 15.968 71.8331 16.304 71.3051 16.544C70.9211 16.72 70.4411 16.856 69.8651 16.952C69.3051 17.048 68.8651 17.096 68.5451 17.096C67.9851 17.096 67.3771 16.992 66.7211 16.784C66.0651 16.576 65.5051 16.28 65.0411 15.896C64.5931 15.512 64.3691 15.064 64.3691 14.552C64.3691 14.232 64.4731 13.984 64.6811 13.808C64.8891 13.616 65.1611 13.52 65.4971 13.52C65.7691 13.52 66.0571 13.712 66.3611 14.096C66.6651 14.432 67.0171 14.688 67.4171 14.864C67.8331 15.04 68.2411 15.128 68.6411 15.128C70.1611 15.128 70.9211 14.784 70.9211 14.096C70.9211 13.952 70.8731 13.816 70.7771 13.688C70.6811 13.544 70.5931 13.448 70.5131 13.4C70.3691 13.288 70.1691 13.192 69.9131 13.112C69.6571 13.032 69.4011 12.968 69.1451 12.92C68.8891 12.856 68.6971 12.808 68.5691 12.776C68.4411 12.744 68.1691 12.688 67.7531 12.608C67.3531 12.528 66.9691 12.392 66.6011 12.2C65.9931 11.912 65.4971 11.56 65.1131 11.144C64.7451 10.728 64.5611 10.192 64.5611 9.536C64.5611 9.168 64.6491 8.8 64.8251 8.432C65.0171 8.048 65.2731 7.76 65.5931 7.568C66.0731 7.264 66.6011 7.032 67.1771 6.872C67.7531 6.712 68.2891 6.632 68.7851 6.632C69.1851 6.632 69.6331 6.672 70.1291 6.752C70.6411 6.832 71.0091 6.944 71.2331 7.088C71.6491 7.312 71.9531 7.544 72.1451 7.784C72.3371 8.024 72.4331 8.328 72.4331 8.696C72.4331 8.872 72.3931 9.048 72.3131 9.224C72.2331 9.384 72.1371 9.496 72.0251 9.56C71.7691 9.656 71.5451 9.704 71.3531 9.704C71.2091 9.704 71.0891 9.68 70.9931 9.632C70.8971 9.568 70.8091 9.504 70.7291 9.44C70.6651 9.376 70.6251 9.336 70.6091 9.32C70.4011 9.096 70.1691 8.92 69.9131 8.792C69.6571 8.664 69.2811 8.6 68.7851 8.6C68.4651 8.6 68.1531 8.648 67.8491 8.744C67.5611 8.824 67.3371 8.928 67.1771 9.056C67.0491 9.152 66.9611 9.24 66.9131 9.32C66.8651 9.384 66.8411 9.472 66.8411 9.584C66.8411 10.032 67.2891 10.36 68.1851 10.568C69.0971 10.776 69.5771 10.888 69.6251 10.904C69.7211 10.936 69.9851 11.016 70.4171 11.144C70.8651 11.272 71.1851 11.392 71.3771 11.504ZM75.1738 11.912C75.1738 11.304 75.2858 10.696 75.5098 10.088C75.7338 9.464 76.0298 8.896 76.3978 8.384C76.7658 7.872 77.3498 7.456 78.1498 7.136C78.9498 6.8 79.6618 6.632 80.2858 6.632C80.9258 6.632 81.5738 6.72 82.2298 6.896C82.9018 7.072 83.3658 7.344 83.6218 7.712C84.2138 8.544 84.5098 9.36 84.5098 10.16C84.5098 10.592 84.4138 10.96 84.2218 11.264C84.0458 11.568 83.7898 11.896 83.4538 12.248C83.1818 12.536 82.7498 12.728 82.1578 12.824C81.5818 12.92 81.0058 12.968 80.4297 12.968C80.0618 12.968 79.6138 12.936 79.0858 12.872C78.5578 12.792 78.0458 12.696 77.5498 12.584C77.5818 12.904 77.6618 13.216 77.7898 13.52C77.9178 13.824 78.0698 14.056 78.2458 14.216C78.5658 14.52 78.8938 14.712 79.2298 14.792C79.5818 14.872 80.0298 14.912 80.5738 14.912C81.1498 14.912 81.6858 14.816 82.1818 14.624C82.5818 14.48 82.9098 14.408 83.1658 14.408C83.4698 14.408 83.7018 14.504 83.8618 14.696C84.0218 14.872 84.1018 15.104 84.1018 15.392C84.1018 15.792 83.8698 16.12 83.4058 16.376C82.9418 16.632 82.4058 16.824 81.7978 16.952C81.2058 17.064 80.7258 17.12 80.3578 17.12C79.6058 17.12 78.8778 16.984 78.1738 16.712C77.4698 16.44 76.8858 16.056 76.4218 15.56C76.0378 15.112 75.7338 14.576 75.5098 13.952C75.2858 13.312 75.1738 12.632 75.1738 11.912ZM80.4058 8.672C80.0538 8.672 79.7018 8.744 79.3498 8.888C78.9978 9.016 78.7098 9.2 78.4858 9.44C78.1978 9.744 77.9978 9.992 77.8858 10.184C77.7898 10.36 77.7258 10.608 77.6938 10.928C78.0938 11.056 78.9258 11.12 80.1898 11.12C80.8778 11.12 81.4058 11.016 81.7738 10.808C82.1578 10.6 82.3498 10.328 82.3498 9.992C82.3498 9.656 82.1418 9.352 81.7258 9.08C81.3098 8.808 80.8698 8.672 80.4058 8.672Z" fill="white"/>
</svg>
