<svg width="75" height="18" viewBox="0 0 75 18" fill="none" xmlns="http://www.w3.org/2000/svg">
<path d="M11.744 5.456C11.056 4.96 10.464 4.6 9.968 4.376C9.472 4.136 8.896 4.016 8.24 4.016C6.928 4.016 5.8 4.352 4.856 5.024C4.136 5.552 3.6 6.24 3.248 7.088C2.896 7.936 2.72 8.888 2.72 9.944C2.72 10.952 2.952 11.84 3.416 12.608C3.88 13.36 4.48 13.936 5.216 14.336C5.952 14.736 6.72 14.936 7.52 14.936C8.32 14.936 9.008 14.816 9.584 14.576C10.176 14.32 10.648 13.992 11 13.592C11.544 12.904 11.816 11.992 11.816 10.856C11.816 10.696 11.688 10.584 11.432 10.52C11.176 10.456 10.808 10.424 10.328 10.424L8.6 10.448C8.136 10.448 7.768 10.36 7.496 10.184C7.224 10.008 7.088 9.784 7.088 9.512C7.088 9.128 7.216 8.848 7.472 8.672C7.728 8.48 8.072 8.384 8.504 8.384C9.016 8.384 9.704 8.416 10.568 8.48C11.432 8.544 12.056 8.576 12.44 8.576C13 8.576 13.448 8.752 13.784 9.104C14.136 9.456 14.312 9.968 14.312 10.64C14.312 11.264 14.176 11.992 13.904 12.824C13.632 13.656 13.248 14.4 12.752 15.056C12.272 15.696 11.56 16.184 10.616 16.52C9.688 16.84 8.656 17 7.52 17C6.576 17 5.664 16.848 4.784 16.544C3.904 16.24 3.168 15.816 2.576 15.272C1.84 14.584 1.256 13.768 0.824 12.824C0.408 11.864 0.2 10.912 0.2 9.968C0.2 8.592 0.52 7.256 1.16 5.96C1.816 4.648 2.696 3.632 3.8 2.912C4.28 2.592 4.952 2.328 5.816 2.12C6.68 1.912 7.472 1.808 8.192 1.808C9.312 1.808 10.296 1.984 11.144 2.336C11.992 2.672 12.64 3.16 13.088 3.8C13.28 4.088 13.376 4.344 13.376 4.568C13.376 4.824 13.264 5.064 13.04 5.288C12.816 5.512 12.592 5.624 12.368 5.624C12.272 5.624 12.16 5.608 12.032 5.576C11.904 5.544 11.808 5.504 11.744 5.456ZM21.1623 3.752C21.1143 4.776 21.0903 5.76 21.0903 6.704C21.0903 7.68 21.1543 9.112 21.2823 11C21.2983 11.288 21.3303 11.872 21.3783 12.752C21.4263 13.616 21.4503 14.408 21.4503 15.128C21.6103 15.112 21.7783 15.088 21.9543 15.056C22.1463 15.024 22.2903 15.008 22.3863 15.008C22.7383 15.008 23.0183 15.096 23.2263 15.272C23.4343 15.448 23.5383 15.72 23.5383 16.088C23.5383 16.328 23.4423 16.512 23.2503 16.64C23.0583 16.768 22.7223 16.864 22.2423 16.928C21.7783 16.976 21.0983 17 20.2023 17C19.2103 17 18.4663 16.968 17.9703 16.904C17.4743 16.84 17.1303 16.72 16.9383 16.544C16.7463 16.352 16.6503 16.072 16.6503 15.704C16.6503 15.432 16.7383 15.248 16.9143 15.152C17.0903 15.056 17.3383 15.008 17.6583 15.008L18.1623 15.032L18.9543 15.08L18.8343 12.248C18.7383 10.712 18.6903 9.304 18.6903 8.024C18.6903 7.336 18.7143 6.392 18.7623 5.192L18.8103 3.872C18.2663 3.904 17.8423 3.92 17.5383 3.92C17.1863 3.92 16.9463 3.856 16.8183 3.728C16.7063 3.6 16.6503 3.336 16.6503 2.936C16.6503 2.488 16.9543 2.2 17.5623 2.072C18.1863 1.944 19.1303 1.88 20.3943 1.88C21.3703 1.88 22.0983 1.912 22.5783 1.976C23.0743 2.04 23.3223 2.184 23.3223 2.408C23.3223 2.952 23.2023 3.312 22.9623 3.488C22.7383 3.648 22.2983 3.728 21.6423 3.728L21.1623 3.752ZM25.7954 8.696C25.5714 8.664 25.3874 8.568 25.2434 8.408C25.1154 8.248 25.0514 8.056 25.0514 7.832C25.0514 7.72 25.0754 7.6 25.1234 7.472C25.1874 7.344 25.2754 7.232 25.3874 7.136C25.5954 6.928 26.1554 6.824 27.0674 6.824C27.1954 6.2 27.2594 5.568 27.2594 4.928C27.2594 4.688 27.2514 4.48 27.2354 4.304C27.2194 4.128 27.2114 3.992 27.2114 3.896C27.2114 3.544 27.3394 3.28 27.5954 3.104C27.8674 2.928 28.1714 2.84 28.5074 2.84C28.9234 2.84 29.2034 2.944 29.3474 3.152C29.5074 3.36 29.5874 3.744 29.5874 4.304C29.5874 5.136 29.5154 5.952 29.3714 6.752C29.6274 6.752 29.9794 6.736 30.4274 6.704C31.0354 6.672 31.4754 6.656 31.7474 6.656C32.0194 6.656 32.2514 6.728 32.4434 6.872C32.6514 7 32.7554 7.184 32.7554 7.424C32.7554 8.048 32.4754 8.416 31.9154 8.528C31.3234 8.672 30.4034 8.76 29.1554 8.792C29.1074 9.416 29.0834 10.096 29.0834 10.832C29.0834 11.984 29.1554 12.928 29.2994 13.664C29.3954 14.176 29.5554 14.552 29.7794 14.792C30.0194 15.016 30.3714 15.128 30.8354 15.128C31.1074 15.128 31.3874 15.056 31.6754 14.912C31.8674 14.8 32.0434 14.744 32.2034 14.744C32.4274 14.744 32.5874 14.816 32.6834 14.96C32.7954 15.104 32.8514 15.296 32.8514 15.536C32.8514 15.984 32.6114 16.36 32.1314 16.664C31.6514 16.952 31.0354 17.096 30.2834 17.096C29.8194 17.096 29.3474 16.984 28.8674 16.76C28.4034 16.536 28.0114 16.256 27.6914 15.92C27.6434 15.872 27.5554 15.688 27.4274 15.368C27.2994 15.048 27.1874 14.704 27.0914 14.336C26.9314 13.584 26.8514 12.528 26.8514 11.168C26.8514 10.576 26.8834 9.784 26.9474 8.792L25.7954 8.696ZM45.8589 8.408C45.8429 8.152 45.8349 7.768 45.8349 7.256V6.344C45.8349 5.736 45.8189 5.28 45.7869 4.976C45.7549 4.72 45.7389 4.056 45.7389 2.984C45.7389 2.6 45.8509 2.304 46.0749 2.096C46.3149 1.872 46.6349 1.76 47.0349 1.76C47.5469 1.76 47.8909 1.872 48.0669 2.096C48.2429 2.32 48.3309 2.688 48.3309 3.2V4.112L48.3069 6.752C48.2909 7.264 48.2829 8.032 48.2829 9.056L48.3069 11.024C48.3229 11.328 48.3309 11.752 48.3309 12.296C48.3309 12.728 48.3469 13.344 48.3789 14.144C48.4109 14.88 48.4269 15.432 48.4269 15.8C48.4269 16.104 48.3389 16.384 48.1629 16.64C48.0029 16.896 47.7789 17.024 47.4909 17.024C46.3709 17.024 45.8109 16.648 45.8109 15.896C45.8109 15.48 45.8269 15.016 45.8589 14.504C45.8909 14.136 45.9069 13.576 45.9069 12.824C45.9069 12.296 45.8909 11.536 45.8589 10.544C45.1069 10.608 43.8109 10.64 41.9709 10.64C40.8189 10.64 39.9229 10.64 39.2829 10.64C38.6429 10.624 38.1789 10.584 37.8909 10.52L37.8669 13.28C37.8669 13.456 37.9069 13.928 37.9869 14.696C38.0669 15.208 38.1069 15.656 38.1069 16.04C38.1069 16.28 37.9629 16.512 37.6749 16.736C37.4029 16.944 37.1469 17.048 36.9069 17.048C36.3309 17.048 35.9389 16.912 35.7309 16.64C35.5229 16.352 35.4189 15.92 35.4189 15.344L35.3949 13.448C35.3789 13.224 35.3709 12.912 35.3709 12.512C35.3709 11.92 35.3549 11.112 35.3229 10.088C35.2909 9.16 35.2749 8.488 35.2749 8.072C35.2749 7.448 35.2909 6.576 35.3229 5.456C35.3549 4.4 35.3709 3.616 35.3709 3.104C35.3709 2.592 35.4989 2.248 35.7549 2.072C36.0109 1.896 36.2989 1.808 36.6189 1.808C37.5149 1.808 37.9629 2.104 37.9629 2.696C37.9629 3.752 37.9389 4.76 37.8909 5.72C37.8589 6.936 37.8429 7.824 37.8429 8.384C38.3069 8.496 38.7949 8.568 39.3069 8.6C39.8189 8.632 40.5389 8.648 41.4669 8.648C43.3549 8.648 44.8189 8.568 45.8589 8.408ZM50.9801 8.912C50.8521 8.912 50.7321 8.864 50.6201 8.768C50.5241 8.656 50.4761 8.528 50.4761 8.384C50.4761 8.016 50.6361 7.672 50.9561 7.352C51.0521 7.304 51.2441 7.224 51.5321 7.112C51.8201 7 52.0761 6.944 52.3001 6.944C52.9081 6.944 53.4041 7.112 53.7881 7.448C54.1721 7.768 54.3641 8.232 54.3641 8.84C54.3641 9.016 54.3321 9.392 54.2681 9.968C54.2041 10.64 54.1721 11.16 54.1721 11.528C54.1721 12.648 54.3241 13.552 54.6281 14.24C54.7401 14.464 54.9161 14.64 55.1561 14.768C55.3961 14.896 55.6121 14.96 55.8041 14.96C56.2681 14.96 56.6441 14.88 56.9321 14.72C57.2201 14.56 57.5321 14.304 57.8681 13.952C58.2041 13.6 58.4201 13.2 58.5161 12.752C58.6281 12.304 58.7081 11.688 58.7561 10.904C58.7881 10.392 58.8201 10.016 58.8521 9.776C58.9321 9.008 58.9721 8.352 58.9721 7.808C58.9721 7.456 59.0681 7.168 59.2601 6.944C59.4521 6.704 59.7161 6.584 60.0521 6.584C60.2441 6.584 60.4601 6.648 60.7001 6.776C60.9561 6.888 61.1241 7.024 61.2041 7.184C61.3001 7.344 61.3481 7.608 61.3481 7.976C61.3481 8.168 61.3241 8.352 61.2761 8.528C61.1641 8.928 61.1081 9.408 61.1081 9.968L61.1321 11.216C61.1321 12.352 61.2121 13.192 61.3721 13.736C61.4521 13.992 61.5641 14.256 61.7081 14.528C61.8521 14.784 61.9881 15 62.1161 15.176C62.4361 15.528 62.6441 15.776 62.7401 15.92C62.8361 16.048 62.8841 16.176 62.8841 16.304C62.8841 16.496 62.7881 16.68 62.5961 16.856C62.4201 17.016 62.2281 17.096 62.0201 17.096C61.4281 17.096 60.9161 16.896 60.4841 16.496C60.0521 16.096 59.7321 15.576 59.5241 14.936C58.9801 15.56 58.4761 16.064 58.0121 16.448C57.6921 16.672 57.3001 16.84 56.8361 16.952C56.3721 17.048 55.9081 17.096 55.4441 17.096C54.8201 17.096 54.1881 16.84 53.5481 16.328C52.9081 15.816 52.4761 15.224 52.2521 14.552C52.2361 14.52 52.1881 14.392 52.1081 14.168C52.0441 13.944 52.0121 13.608 52.0121 13.16C52.0121 12.568 52.0441 11.824 52.1081 10.928C52.1561 10.352 52.1801 9.824 52.1801 9.344C52.1801 9.2 52.1241 9.08 52.0121 8.984C51.9161 8.888 51.8041 8.84 51.6761 8.84C51.5801 8.84 51.4681 8.856 51.3401 8.888C51.2281 8.904 51.1081 8.912 50.9801 8.912ZM65.2777 12.68C65.2777 11.784 65.2857 11.104 65.3017 10.64L65.3257 8.36C65.3257 7.432 65.3017 6.416 65.2537 5.312C65.2377 4.976 65.1817 4.512 65.0857 3.92C64.9577 3.024 64.8937 2.352 64.8937 1.904C64.8937 1.168 65.2617 0.8 65.9977 0.8C66.4617 0.8 66.7897 0.927999 66.9817 1.184C67.1897 1.424 67.3337 1.808 67.4137 2.336C67.5737 3.44 67.6537 4.736 67.6537 6.224C67.6537 6.672 67.6377 7.344 67.6057 8.24C67.9097 7.76 68.3017 7.384 68.7817 7.112C69.2777 6.84 69.7657 6.704 70.2457 6.704C71.6377 6.704 72.8377 7.28 73.8457 8.432C74.1177 8.832 74.3577 9.312 74.5657 9.872C74.7897 10.416 74.9017 10.888 74.9017 11.288C74.9017 11.992 74.8217 12.64 74.6617 13.232C74.5177 13.824 74.2537 14.4 73.8697 14.96C73.4857 15.52 72.9977 15.976 72.4057 16.328C71.8297 16.68 71.1577 16.856 70.3897 16.856C69.7177 16.856 69.1097 16.72 68.5657 16.448C68.0377 16.176 67.6137 15.816 67.2937 15.368C67.2137 15.768 67.0377 16.168 66.7657 16.568C66.4937 16.952 66.1817 17.144 65.8297 17.144C65.5417 17.144 65.3017 17.072 65.1097 16.928C64.9177 16.768 64.8217 16.536 64.8217 16.232C64.8217 16.008 64.8697 15.728 64.9657 15.392C65.0617 14.928 65.1337 14.504 65.1817 14.12C65.2457 13.72 65.2777 13.24 65.2777 12.68ZM69.7897 14.864C70.5737 14.864 71.2297 14.592 71.7577 14.048C72.2857 13.488 72.5497 12.736 72.5497 11.792C72.5497 10.928 72.3177 10.184 71.8537 9.56C71.6937 9.352 71.4617 9.184 71.1577 9.056C70.8697 8.928 70.5817 8.864 70.2937 8.864C69.6217 8.864 69.0537 9.064 68.5897 9.464C68.1257 9.848 67.8617 10.384 67.7977 11.072C67.7337 12 67.7017 12.8 67.7017 13.472C67.8937 13.84 68.1817 14.168 68.5657 14.456C68.9657 14.728 69.3737 14.864 69.7897 14.864Z" fill="white"/>
</svg>
