<svg width="63" height="18" viewBox="0 0 63 18" fill="none" xmlns="http://www.w3.org/2000/svg">
<path d="M11.312 8.408C11.296 8.152 11.288 7.768 11.288 7.256V6.344C11.288 5.736 11.272 5.28 11.24 4.976C11.208 4.72 11.192 4.056 11.192 2.984C11.192 2.6 11.304 2.304 11.528 2.096C11.768 1.872 12.088 1.76 12.488 1.76C13 1.76 13.344 1.872 13.52 2.096C13.696 2.32 13.784 2.688 13.784 3.2V4.112L13.76 6.752C13.744 7.264 13.736 8.032 13.736 9.056L13.76 11.024C13.776 11.328 13.784 11.752 13.784 12.296C13.784 12.728 13.8 13.344 13.832 14.144C13.864 14.88 13.88 15.432 13.88 15.8C13.88 16.104 13.792 16.384 13.616 16.64C13.456 16.896 13.232 17.024 12.944 17.024C11.824 17.024 11.264 16.648 11.264 15.896C11.264 15.48 11.28 15.016 11.312 14.504C11.344 14.136 11.36 13.576 11.36 12.824C11.36 12.296 11.344 11.536 11.312 10.544C10.56 10.608 9.264 10.64 7.424 10.64C6.272 10.64 5.376 10.64 4.736 10.64C4.096 10.624 3.632 10.584 3.344 10.52L3.32 13.28C3.32 13.456 3.36 13.928 3.44 14.696C3.52 15.208 3.56 15.656 3.56 16.04C3.56 16.28 3.416 16.512 3.128 16.736C2.856 16.944 2.6 17.048 2.36 17.048C1.784 17.048 1.392 16.912 1.184 16.64C0.976 16.352 0.872 15.92 0.872 15.344L0.848 13.448C0.832 13.224 0.824 12.912 0.824 12.512C0.824 11.92 0.808 11.112 0.776 10.088C0.744 9.16 0.728 8.488 0.728 8.072C0.728 7.448 0.744 6.576 0.776 5.456C0.808 4.4 0.824 3.616 0.824 3.104C0.824 2.592 0.952 2.248 1.208 2.072C1.464 1.896 1.752 1.808 2.072 1.808C2.968 1.808 3.416 2.104 3.416 2.696C3.416 3.752 3.392 4.76 3.344 5.72C3.312 6.936 3.296 7.824 3.296 8.384C3.76 8.496 4.248 8.568 4.76 8.6C5.272 8.632 5.992 8.648 6.92 8.648C8.808 8.648 10.272 8.568 11.312 8.408ZM16.8892 8.696C16.6652 8.664 16.4812 8.568 16.3372 8.408C16.2092 8.248 16.1452 8.056 16.1452 7.832C16.1452 7.72 16.1692 7.6 16.2172 7.472C16.2812 7.344 16.3692 7.232 16.4812 7.136C16.6892 6.928 17.2492 6.824 18.1612 6.824C18.2892 6.2 18.3532 5.568 18.3532 4.928C18.3532 4.688 18.3452 4.48 18.3292 4.304C18.3132 4.128 18.3052 3.992 18.3052 3.896C18.3052 3.544 18.4332 3.28 18.6892 3.104C18.9612 2.928 19.2652 2.84 19.6012 2.84C20.0172 2.84 20.2972 2.944 20.4412 3.152C20.6012 3.36 20.6812 3.744 20.6812 4.304C20.6812 5.136 20.6092 5.952 20.4652 6.752C20.7212 6.752 21.0732 6.736 21.5212 6.704C22.1292 6.672 22.5692 6.656 22.8412 6.656C23.1132 6.656 23.3452 6.728 23.5372 6.872C23.7452 7 23.8492 7.184 23.8492 7.424C23.8492 8.048 23.5692 8.416 23.0092 8.528C22.4172 8.672 21.4972 8.76 20.2492 8.792C20.2012 9.416 20.1772 10.096 20.1772 10.832C20.1772 11.984 20.2492 12.928 20.3932 13.664C20.4892 14.176 20.6492 14.552 20.8732 14.792C21.1132 15.016 21.4652 15.128 21.9292 15.128C22.2012 15.128 22.4812 15.056 22.7692 14.912C22.9612 14.8 23.1372 14.744 23.2972 14.744C23.5212 14.744 23.6812 14.816 23.7772 14.96C23.8892 15.104 23.9452 15.296 23.9452 15.536C23.9452 15.984 23.7052 16.36 23.2252 16.664C22.7452 16.952 22.1292 17.096 21.3772 17.096C20.9132 17.096 20.4412 16.984 19.9612 16.76C19.4972 16.536 19.1052 16.256 18.7852 15.92C18.7372 15.872 18.6492 15.688 18.5212 15.368C18.3932 15.048 18.2812 14.704 18.1852 14.336C18.0252 13.584 17.9452 12.528 17.9452 11.168C17.9452 10.576 17.9772 9.784 18.0412 8.792L16.8892 8.696ZM25.8886 8.744C25.4886 8.408 25.2886 8.016 25.2886 7.568C25.2886 7.344 25.4006 7.144 25.6246 6.968C25.8486 6.776 26.1206 6.68 26.4406 6.68C27.0166 6.68 27.4886 6.832 27.8566 7.136C28.2246 7.44 28.5446 7.88 28.8166 8.456C29.1526 7.832 29.5766 7.376 30.0886 7.088C30.6166 6.784 31.2806 6.632 32.0806 6.632C32.5606 6.632 32.9446 6.696 33.2326 6.824C33.5366 6.936 33.7846 7.104 33.9766 7.328C34.1686 7.536 34.4086 7.856 34.6966 8.288C35.1126 7.776 35.6326 7.376 36.2566 7.088C36.8966 6.8 37.5526 6.656 38.2246 6.656C39.0086 6.656 39.7206 6.984 40.3606 7.64C41.0166 8.296 41.4566 9.04 41.6806 9.872C41.7606 10.224 41.8166 11.056 41.8486 12.368L41.9446 13.76C42.0246 14.608 42.2966 15.112 42.7606 15.272C42.9846 15.336 43.1686 15.416 43.3126 15.512C43.4726 15.592 43.5526 15.68 43.5526 15.776C43.5846 16.16 43.4966 16.44 43.2886 16.616C43.1446 16.712 42.9446 16.816 42.6886 16.928C42.4326 17.04 42.2326 17.096 42.0886 17.096C41.2246 17.096 40.6086 16.784 40.2406 16.16C40.0006 15.744 39.8486 15.272 39.7846 14.744C39.7206 14.2 39.6886 13.464 39.6886 12.536C39.6886 11.544 39.5686 10.696 39.3286 9.992C39.0886 9.272 38.5446 8.912 37.6966 8.912C37.3926 8.912 37.0886 9.008 36.7846 9.2C36.4966 9.376 36.2886 9.6 36.1606 9.872C35.9366 10.304 35.7846 10.776 35.7046 11.288C35.6246 11.784 35.5846 12.36 35.5846 13.016C35.5846 13.432 35.6086 13.856 35.6566 14.288C35.6566 14.416 35.6646 14.624 35.6806 14.912C35.7126 15.184 35.7286 15.432 35.7286 15.656C35.7286 16.056 35.6486 16.4 35.4886 16.688C35.3446 16.96 35.0886 17.096 34.7206 17.096C33.8406 17.096 33.3766 16.632 33.3286 15.704C33.3286 15.048 33.3366 14.696 33.3526 14.648V13.616C33.3526 13.04 33.3286 12.48 33.2806 11.936C33.2326 11.392 33.1766 10.984 33.1126 10.712C32.9686 10.184 32.7766 9.776 32.5366 9.488C32.2966 9.2 31.9286 9.056 31.4326 9.056C31.0966 9.056 30.7846 9.136 30.4966 9.296C30.2086 9.456 29.9606 9.68 29.7526 9.968C29.4486 10.448 29.2486 11.032 29.1526 11.72C29.0566 12.6 28.9846 13.296 28.9366 13.808C28.9046 14.304 28.8886 14.88 28.8886 15.536C28.8886 16 28.8086 16.376 28.6486 16.664C28.5046 16.952 28.2246 17.096 27.8086 17.096C27.5046 17.096 27.1846 17.016 26.8486 16.856C26.5286 16.68 26.3686 16.448 26.3686 16.16C26.3686 15.856 26.4006 15.552 26.4646 15.248C26.6086 14.336 26.6806 12.784 26.6806 10.592C26.6806 10.24 26.6006 9.896 26.4406 9.56C26.2966 9.208 26.1126 8.936 25.8886 8.744ZM47.9131 13.28C47.9131 13.888 48.0011 14.36 48.1771 14.696C48.3691 15.016 48.6091 15.176 48.8971 15.176C49.0571 15.176 49.2091 15.168 49.3531 15.152C49.4971 15.12 49.6411 15.104 49.7851 15.104C49.9451 15.104 50.0811 15.184 50.1931 15.344C50.3211 15.504 50.3851 15.68 50.3851 15.872C50.3851 16.256 50.2011 16.56 49.8331 16.784C49.4811 16.992 49.0011 17.096 48.3931 17.096C47.9611 17.096 47.5211 16.968 47.0731 16.712C46.6411 16.44 46.2811 16.024 45.9931 15.464C45.7051 14.888 45.5611 14.176 45.5611 13.328C45.5611 11.504 45.5931 9.96 45.6571 8.696C45.7371 7.192 45.7771 5.296 45.7771 3.008C45.7771 2.288 45.8171 1.784 45.8971 1.496C45.9931 1.272 46.1451 1.104 46.3531 0.991999C46.5771 0.863999 46.8091 0.8 47.0491 0.8C47.2891 0.8 47.4971 0.84 47.6731 0.92C47.8651 1 47.9931 1.128 48.0571 1.304C48.1211 1.496 48.1611 1.688 48.1771 1.88C48.2091 2.056 48.2251 2.312 48.2251 2.648C48.2251 3.304 48.2011 3.936 48.1531 4.544C48.1211 5.28 48.1051 5.816 48.1051 6.152C47.9771 8.968 47.9131 11.344 47.9131 13.28ZM55.31 4.424C55.198 4.872 55.126 5.464 55.094 6.2C55.062 6.84 55.014 7.32 54.95 7.64C55.414 7.448 55.854 7.328 56.27 7.28C56.686 7.216 57.214 7.184 57.854 7.184C58.846 7.184 59.71 7.416 60.446 7.88C61.182 8.328 61.742 8.936 62.126 9.704C62.51 10.456 62.702 11.264 62.702 12.128C62.702 12.464 62.59 12.92 62.366 13.496C62.142 14.056 61.91 14.488 61.67 14.792C61.11 15.528 60.462 16.096 59.726 16.496C58.99 16.88 58.19 17.072 57.326 17.072C56.67 17.072 56.07 16.984 55.526 16.808C54.998 16.616 54.43 16.36 53.822 16.04C53.198 15.704 52.742 15.36 52.454 15.008C52.182 14.64 52.046 14.184 52.046 13.64C52.046 13.352 52.166 13.12 52.406 12.944C52.662 12.752 52.902 12.656 53.126 12.656C53.27 12.656 53.398 12.696 53.51 12.776C53.622 12.856 53.806 13.016 54.062 13.256L54.662 13.832C55.046 14.152 55.422 14.392 55.79 14.552C56.174 14.712 56.638 14.792 57.182 14.792C57.678 14.792 58.078 14.728 58.382 14.6C58.99 14.36 59.462 14.048 59.798 13.664C60.15 13.28 60.326 12.664 60.326 11.816C60.326 11 60.054 10.368 59.51 9.92C58.966 9.456 58.046 9.224 56.75 9.224C56.574 9.224 56.318 9.272 55.982 9.368C55.646 9.464 55.318 9.568 54.998 9.68C54.23 9.936 53.758 10.064 53.582 10.064C53.358 10.064 53.134 9.968 52.91 9.776C52.686 9.584 52.574 9.328 52.574 9.008C52.862 7.072 53.006 5.464 53.006 4.184L52.982 3.584C52.95 3.296 52.934 3.056 52.934 2.864C52.934 2.576 53.086 2.36 53.39 2.216C53.71 2.056 54.038 1.976 54.374 1.976C54.662 1.976 55.286 2.024 56.246 2.12L57.398 2.216C57.542 2.232 57.758 2.24 58.046 2.24L58.934 2.216C59.11 2.2 59.366 2.192 59.702 2.192C60.182 2.192 60.582 2.264 60.902 2.408C61.222 2.552 61.382 2.784 61.382 3.104C61.382 3.6 61.302 3.96 61.142 4.184C60.982 4.408 60.798 4.52 60.59 4.52C60.398 4.52 60.078 4.488 59.63 4.424C59.038 4.36 58.342 4.328 57.542 4.328C56.982 4.328 56.238 4.36 55.31 4.424Z" fill="white"/>
</svg>
