<svg width="108" height="22" viewBox="0 0 108 22" fill="none" xmlns="http://www.w3.org/2000/svg">
<path d="M2.664 12.016C2.664 12.752 2.768 13.288 2.976 13.624C3.184 13.944 3.512 14.104 3.96 14.104C5.08 14.104 5.84 13.648 6.24 12.736C6.656 11.824 6.864 10.576 6.864 8.992C6.864 8.224 6.816 7.152 6.72 5.776C6.624 4.464 6.576 3.488 6.576 2.848C4.864 2.848 4.008 2.512 4.008 1.84C4.008 1.44 4.072 1.176 4.2 1.048C4.344 0.919999 4.56 0.855999 4.848 0.855999C5.024 0.855999 5.216 0.871999 5.424 0.904C5.632 0.92 5.784 0.927999 5.88 0.927999C6.2 0.976 6.504 1 6.792 1C7.32 1 7.808 0.976 8.256 0.927999C8.832 0.895999 9.264 0.879999 9.552 0.879999C10.128 0.879999 10.528 0.935999 10.752 1.048C10.992 1.16 11.112 1.376 11.112 1.696C11.112 2.032 11.024 2.272 10.848 2.416C10.688 2.544 10.448 2.64 10.128 2.704L9.024 2.824C9.008 3.88 9.072 5.144 9.216 6.616C9.232 6.84 9.264 7.264 9.312 7.888C9.36 8.496 9.384 9.056 9.384 9.568C9.384 11.648 8.944 13.256 8.064 14.392C7.184 15.512 5.872 16.072 4.128 16.072C3.04 16.072 2.128 15.76 1.392 15.136C0.672 14.496 0.312 13.544 0.312 12.28C0.312 11.928 0.44 11.648 0.696 11.44C0.952 11.216 1.296 11.104 1.728 11.104C2.032 11.104 2.264 11.208 2.424 11.416C2.584 11.624 2.664 11.824 2.664 12.016ZM23.3951 14.848C23.3951 15.2 23.2031 15.496 22.8191 15.736C22.4511 15.976 22.1071 16.096 21.7871 16.096C21.1791 16.096 20.6911 16.024 20.3231 15.88C19.9711 15.72 19.6431 15.432 19.3391 15.016C18.9231 15.384 18.3551 15.664 17.6351 15.856C16.9151 16.032 16.2511 16.12 15.6431 16.12C14.6511 16.12 13.8351 15.856 13.1951 15.328C12.5551 14.784 12.2351 13.992 12.2351 12.952C12.2351 12.504 12.3551 12.096 12.5951 11.728C12.8351 11.344 13.1631 11.008 13.5791 10.72C14.0431 10.416 14.5711 10.184 15.1631 10.024C15.7551 9.848 16.3711 9.76 17.0111 9.76C17.3471 9.76 17.7471 9.824 18.2111 9.952C18.6751 10.08 19.0351 10.216 19.2911 10.36V9.976C19.2911 9.112 19.0831 8.52 18.6671 8.2C18.2511 7.864 17.5791 7.696 16.6511 7.696C16.3791 7.696 16.1071 7.752 15.8351 7.864C15.5791 7.976 15.2831 8.128 14.9471 8.32C14.4991 8.56 14.0751 8.68 13.6751 8.68C13.5311 8.68 13.3951 8.584 13.2671 8.392C13.1391 8.184 13.0751 8 13.0751 7.84C13.0751 7.376 13.2911 6.976 13.7231 6.64C14.1711 6.304 14.6991 6.056 15.3071 5.896C15.9151 5.72 16.4591 5.632 16.9391 5.632C17.4191 5.632 17.9711 5.728 18.5951 5.92C19.2191 6.096 19.7311 6.344 20.1311 6.664C20.6111 7.08 20.9791 7.568 21.2351 8.128C21.5071 8.672 21.6431 9.272 21.6431 9.928C21.6431 10.136 21.6271 10.448 21.5951 10.864C21.5631 11.312 21.5471 11.696 21.5471 12.016C21.5471 12.16 21.5311 12.376 21.4991 12.664C21.4671 13.016 21.4511 13.296 21.4511 13.504C21.4511 13.696 21.5231 13.864 21.6671 14.008C21.8111 14.136 21.9791 14.2 22.1711 14.2L22.8431 14.176C23.0191 14.176 23.1551 14.24 23.2511 14.368C23.3471 14.496 23.3951 14.656 23.3951 14.848ZM15.6671 14.224C16.3551 14.224 16.9311 14.152 17.3951 14.008C17.8591 13.864 18.4191 13.6 19.0751 13.216C19.1391 12.944 19.1791 12.584 19.1951 12.136C18.3151 11.72 17.5871 11.512 17.0111 11.512C16.3551 11.512 15.7711 11.632 15.2591 11.872C14.7471 12.112 14.4911 12.536 14.4911 13.144C14.4911 13.448 14.6191 13.704 14.8751 13.912C15.1311 14.12 15.3951 14.224 15.6671 14.224ZM30.4416 9.832C30.4896 9.704 30.6576 9.24 30.9456 8.44C31.2496 7.64 31.5296 7.032 31.7856 6.616C32.2016 5.96 32.5696 5.632 32.8896 5.632C33.3376 5.632 33.6816 5.72 33.9216 5.896C34.1616 6.056 34.2816 6.288 34.2816 6.592C34.2816 6.736 34.2176 6.936 34.0896 7.192C33.9776 7.448 33.9136 7.6 33.8976 7.648C33.2576 9.056 32.6816 10.568 32.1696 12.184L31.6656 14.056C31.4736 14.664 31.1456 15.16 30.6816 15.544C30.2176 15.912 29.6736 16.096 29.0496 16.096C28.4896 16.096 27.9696 15.84 27.4896 15.328C27.2016 14.88 26.8976 14.312 26.5776 13.624C26.2736 12.936 26.0096 12.264 25.7856 11.608L24.9456 9.088C24.7696 8.592 24.6256 8.168 24.5136 7.816C24.4176 7.464 24.3696 7.144 24.3696 6.856C24.3536 6.52 24.4496 6.248 24.6576 6.04C24.8656 5.832 25.1536 5.728 25.5216 5.728C25.9376 5.728 26.2336 5.816 26.4096 5.992C26.5856 6.152 26.7456 6.408 26.8896 6.76C26.9536 7.128 27.1296 7.88 27.4176 9.016L27.5856 9.688C27.7296 10.232 27.9136 10.784 28.1376 11.344C28.3616 11.904 28.5856 12.44 28.8096 12.952C28.7776 12.872 28.8896 13.136 29.1456 13.744C29.3056 13.28 29.4896 12.712 29.6976 12.04L30.4416 9.832ZM45.1029 16.096C44.5589 16.096 44.1429 16.016 43.8549 15.856C43.5669 15.68 43.2549 15.36 42.9189 14.896C42.5029 15.264 41.8789 15.56 41.0469 15.784C40.2309 16.008 39.5269 16.12 38.9349 16.12C37.9589 16.12 37.1669 15.856 36.5589 15.328C35.9669 14.784 35.6709 13.992 35.6709 12.952C35.6709 12.504 35.7909 12.096 36.0309 11.728C36.2869 11.344 36.6149 11.008 37.0149 10.72C37.4629 10.416 37.9909 10.176 38.5989 10C39.2229 9.824 39.7909 9.736 40.3029 9.736C41.1669 9.736 41.9349 9.816 42.6069 9.976V9.952C42.6069 9.088 42.3909 8.496 41.9589 8.176C41.5429 7.84 40.8709 7.672 39.9429 7.672C39.3509 7.672 38.8389 7.936 38.4069 8.464C38.2469 8.672 37.9109 8.776 37.3989 8.776C37.1429 8.776 36.9509 8.672 36.8229 8.464C36.7109 8.24 36.6549 8.016 36.6549 7.792C36.6549 7.328 36.8469 6.928 37.2309 6.592C37.6309 6.256 38.1109 6.008 38.6709 5.848C39.2309 5.672 39.7509 5.584 40.2309 5.584C40.6949 5.584 41.2469 5.68 41.8869 5.872C42.5269 6.064 43.0469 6.32 43.4469 6.64C43.9269 7.056 44.2949 7.544 44.5509 8.104C44.8229 8.648 44.9589 9.248 44.9589 9.904C44.9589 10.112 44.9429 10.424 44.9109 10.84C44.8789 11.32 44.8629 11.712 44.8629 12.016C44.8629 12.16 44.8469 12.344 44.8149 12.568C44.7829 12.856 44.7669 13.096 44.7669 13.288C44.7669 13.496 44.8309 13.696 44.9589 13.888C45.0869 14.08 45.2629 14.24 45.4869 14.368C45.6949 14.48 45.8309 14.6 45.8949 14.728C45.9589 14.856 45.9909 15 45.9909 15.16C45.9909 15.32 45.8869 15.52 45.6789 15.76C45.4869 15.984 45.2949 16.096 45.1029 16.096ZM40.3029 11.512C39.6789 11.512 39.1269 11.632 38.6469 11.872C38.1669 12.112 37.9269 12.536 37.9269 13.144C37.9269 13.448 38.0309 13.704 38.2389 13.912C38.4629 14.12 38.7029 14.224 38.9589 14.224C39.6469 14.224 40.2229 14.152 40.6869 14.008C41.1509 13.864 41.7109 13.6 42.3669 13.216C42.4469 12.96 42.4949 12.6 42.5109 12.136C42.5109 11.96 42.5189 11.824 42.5349 11.728C41.6709 11.584 40.9269 11.512 40.3029 11.512ZM59.0274 11.872C59.0274 12.624 58.8674 13.232 58.5474 13.696C58.2274 14.16 57.6754 14.616 56.8914 15.064C56.3634 15.384 55.7554 15.632 55.0674 15.808C54.3794 15.968 53.6834 16.048 52.9794 16.048C52.5474 16.048 52.0434 15.968 51.4674 15.808C50.9074 15.632 50.4514 15.464 50.0994 15.304L49.6914 14.944C48.9714 14.352 48.4674 13.88 48.1794 13.528C47.9074 13.16 47.7714 12.712 47.7714 12.184C47.7714 11.768 47.8674 11.456 48.0594 11.248C48.2514 11.04 48.5634 10.936 48.9954 10.936C49.2194 10.936 49.4274 11.008 49.6194 11.152C49.8114 11.296 49.9794 11.496 50.1234 11.752C50.5234 12.456 50.9954 12.976 51.5394 13.312C52.0994 13.632 52.7554 13.792 53.5074 13.792C54.2114 13.792 54.9234 13.576 55.6434 13.144C56.2354 12.776 56.5314 12.416 56.5314 12.064C56.5314 11.44 56.2514 10.92 55.6914 10.504C55.1474 10.088 54.3634 9.712 53.3394 9.376C52.7154 9.152 51.7794 8.736 50.5314 8.128C49.6834 7.712 49.0514 7.2 48.6354 6.592C48.2194 5.984 48.0114 5.344 48.0114 4.672C48.0114 4.064 48.2194 3.472 48.6354 2.896C49.0674 2.304 49.5874 1.864 50.1954 1.576C50.5154 1.416 51.0274 1.248 51.7314 1.072C52.4354 0.88 52.9634 0.784 53.3154 0.784C53.9714 0.784 54.5394 0.864 55.0194 1.024C55.4994 1.168 55.9714 1.376 56.4354 1.648C57.1394 2.048 57.6594 2.408 57.9954 2.728C58.3314 3.048 58.4994 3.448 58.4994 3.928C58.4994 4.216 58.3874 4.472 58.1634 4.696C57.9554 4.92 57.5874 5.032 57.0594 5.032C56.9314 5.032 56.8034 4.976 56.6754 4.864C56.5474 4.752 56.3874 4.584 56.1954 4.36C55.9394 4.024 55.6914 3.8 55.4514 3.688C55.3874 3.672 55.1234 3.568 54.6594 3.376C54.2114 3.184 53.6514 3.088 52.9794 3.088C52.3394 3.088 51.7714 3.24 51.2754 3.544C50.7794 3.832 50.5314 4.256 50.5314 4.816C50.5314 5.376 51.0354 5.832 52.0434 6.184C53.1154 6.6 54.0034 6.96 54.7074 7.264C55.4274 7.568 56.1234 7.928 56.7954 8.344C57.5634 8.808 58.1234 9.296 58.4754 9.808C58.8434 10.32 59.0274 11.008 59.0274 11.872ZM68.736 8.728C68.496 8.728 68.288 8.672 68.112 8.56C67.952 8.432 67.784 8.264 67.608 8.056C67.432 7.848 67.24 7.712 67.032 7.648C66.84 7.584 66.616 7.552 66.36 7.552C65.896 7.552 65.44 7.696 64.992 7.984C64.56 8.256 64.2 8.64 63.912 9.136C63.64 9.632 63.504 10.184 63.504 10.792C63.504 11.464 63.632 12.024 63.888 12.472C64.16 12.92 64.584 13.312 65.16 13.648C65.368 13.76 65.608 13.848 65.88 13.912C66.168 13.976 66.416 14.008 66.624 14.008C67.12 14.008 67.76 13.792 68.544 13.36C68.608 13.328 68.728 13.272 68.904 13.192C69.096 13.096 69.24 13.048 69.336 13.048C69.512 13.048 69.712 13.136 69.936 13.312C70.16 13.472 70.272 13.672 70.272 13.912C70.272 14.392 70.064 14.8 69.648 15.136C69.248 15.472 68.744 15.72 68.136 15.88C67.528 16.04 66.928 16.12 66.336 16.12C65.392 16.12 64.512 15.904 63.696 15.472C62.88 15.04 62.232 14.44 61.752 13.672C61.272 12.904 61.032 12.04 61.032 11.08C61.032 10.04 61.264 9.104 61.728 8.272C62.192 7.424 62.816 6.76 63.6 6.28C64.4 5.784 65.264 5.536 66.192 5.536C67.088 5.536 67.912 5.712 68.664 6.064C69.432 6.416 69.816 6.952 69.816 7.672C69.816 8.376 69.456 8.728 68.736 8.728ZM75.5299 15.04C75.4979 15.312 75.3859 15.552 75.1939 15.76C75.0019 15.968 74.7539 16.072 74.4499 16.072C73.9699 16.072 73.6179 15.984 73.3939 15.808C73.1699 15.616 73.0579 15.272 73.0579 14.776C73.0579 14.104 73.0979 13.368 73.1779 12.568C73.2419 11.64 73.2739 10.928 73.2739 10.432C73.2739 10.176 73.2579 9.856 73.2259 9.472C73.1939 9.12 73.1779 8.856 73.1779 8.68C73.1299 8.408 73.0179 8.192 72.8419 8.032C72.6819 7.872 72.4259 7.736 72.0739 7.624C71.9299 7.56 71.8099 7.456 71.7139 7.312C71.6179 7.152 71.5699 7.008 71.5699 6.88C71.5699 6.512 71.7139 6.232 72.0019 6.04C72.2899 5.848 72.6419 5.752 73.0579 5.752C73.5219 5.752 73.9219 5.912 74.2579 6.232C74.5939 6.552 74.8499 6.952 75.0259 7.432C75.3939 6.904 75.8419 6.48 76.3699 6.16C76.9139 5.84 77.4419 5.68 77.9539 5.68C78.6099 5.68 79.1619 5.792 79.6099 6.016C80.0739 6.224 80.3059 6.592 80.3059 7.12C80.3059 7.424 80.1699 7.744 79.8979 8.08C79.6419 8.4 79.3779 8.56 79.1059 8.56C78.8979 8.56 78.6499 8.464 78.3619 8.272C78.2499 8.192 78.1219 8.128 77.9779 8.08C77.8499 8.016 77.7139 7.984 77.5699 7.984C77.3139 7.984 77.0739 8.024 76.8499 8.104C76.6259 8.184 76.4739 8.28 76.3939 8.392C76.1379 8.792 75.9459 9.152 75.8179 9.472C75.7059 9.792 75.6499 10.136 75.6499 10.504C75.6499 10.776 75.6419 10.992 75.6259 11.152L75.6019 12.52L75.6259 13.432C75.6259 14.104 75.5939 14.64 75.5299 15.04ZM82.9089 0.592C83.4689 0.639999 83.9489 0.791999 84.3489 1.048C84.7649 1.288 84.9729 1.656 84.9729 2.152C84.9729 2.52 84.8049 2.816 84.4689 3.04C84.1329 3.248 83.7169 3.352 83.2209 3.352C82.7569 3.352 82.4369 3.232 82.2609 2.992C82.0849 2.752 81.9969 2.504 81.9969 2.248C81.9969 1.784 82.0529 1.392 82.1649 1.072C82.2769 0.736 82.5249 0.576 82.9089 0.592ZM82.4289 10.504V9.808C82.4289 9.008 82.3889 8.28 82.3089 7.624C82.2449 6.952 82.2049 6.536 82.1889 6.376C82.2049 6.2 82.3249 6.032 82.5489 5.872C82.7729 5.712 82.9729 5.632 83.1489 5.632C83.4529 5.632 83.7569 5.696 84.0609 5.824C84.3809 5.936 84.5809 6.08 84.6609 6.256C84.7409 6.848 84.7809 7.304 84.7809 7.624C84.7809 8.328 84.8129 9.48 84.8769 11.08L84.9009 12.016L84.9489 12.928C84.9649 13.184 84.9809 13.488 84.9969 13.84C85.0129 14.192 85.0209 14.592 85.0209 15.04C85.0209 15.344 84.8689 15.6 84.5649 15.808C84.2769 16.016 83.9729 16.12 83.6529 16.12C83.1889 16.12 82.8609 16.016 82.6689 15.808C82.4929 15.6 82.4049 15.272 82.4049 14.824L82.4289 10.504ZM88.3787 7.648C88.2347 7.648 88.0987 7.664 87.9707 7.696C87.8427 7.712 87.7147 7.72 87.5867 7.72C87.4107 7.72 87.2427 7.64 87.0827 7.48C86.9387 7.32 86.8667 7.176 86.8667 7.048C86.8667 6.632 87.0747 6.312 87.4907 6.088C87.9067 5.848 88.3307 5.728 88.7627 5.728C89.1307 5.728 89.5067 5.856 89.8907 6.112C90.2907 6.352 90.5867 6.664 90.7787 7.048C91.1947 6.552 91.7067 6.192 92.3147 5.968C92.9227 5.744 93.5547 5.632 94.2107 5.632C94.9467 5.632 95.6267 5.864 96.2507 6.328C96.8907 6.792 97.3947 7.384 97.7627 8.104C98.1307 8.808 98.3147 9.512 98.3147 10.216C98.3147 10.904 98.2427 11.52 98.0987 12.064C97.9547 12.592 97.6987 13.128 97.3307 13.672C96.9147 14.248 96.3547 14.72 95.6507 15.088C94.9627 15.456 94.1387 15.64 93.1787 15.64C92.9227 15.64 92.6107 15.576 92.2427 15.448C91.8747 15.304 91.5707 15.152 91.3307 14.992C91.2187 16.08 91.1627 17.024 91.1627 17.824C91.1627 18.304 91.1867 18.76 91.2347 19.192C91.2667 19.704 91.2827 20.072 91.2827 20.296C91.2827 20.648 91.1627 20.904 90.9227 21.064C90.6827 21.24 90.4187 21.328 90.1307 21.328C89.5547 21.328 89.1707 21.168 88.9787 20.848C88.8027 20.544 88.7147 20.104 88.7147 19.528C88.7787 18.152 88.8587 16.88 88.9547 15.712C89.0507 14.272 89.0987 12.048 89.0987 9.04C89.0987 8.752 89.0427 8.448 88.9307 8.128C88.8187 7.808 88.6347 7.648 88.3787 7.648ZM91.4267 12.616C91.5067 12.92 91.7307 13.176 92.0987 13.384C92.4827 13.576 92.8267 13.672 93.1307 13.672C94.0427 13.672 94.7227 13.424 95.1707 12.928C95.5067 12.576 95.7227 12.232 95.8187 11.896C95.9307 11.56 95.9867 11.024 95.9867 10.288C95.9867 9.712 95.8747 9.232 95.6507 8.848C95.4267 8.448 95.1547 8.16 94.8347 7.984C94.5147 7.792 94.2107 7.696 93.9227 7.696C93.2667 7.696 92.7307 7.896 92.3147 8.296C91.9147 8.68 91.6587 9.208 91.5467 9.88C91.4667 10.408 91.4267 11.32 91.4267 12.616ZM100.53 7.648C100.306 7.616 100.122 7.528 99.9778 7.384C99.8498 7.224 99.7858 7.032 99.7858 6.808C99.7858 6.52 99.8978 6.28 100.122 6.088C100.17 6.04 100.25 6 100.362 5.968C100.474 5.92 100.562 5.88 100.626 5.848C100.978 5.736 101.202 5.648 101.298 5.584C101.666 5.36 101.914 4.992 102.042 4.48C102.17 3.872 102.25 3.456 102.282 3.232C102.314 2.88 102.426 2.616 102.618 2.44C102.826 2.248 103.082 2.152 103.386 2.152C103.786 2.152 104.066 2.256 104.226 2.464C104.386 2.672 104.466 3.056 104.466 3.616C104.466 4.352 104.29 5.048 103.938 5.704C104.162 5.704 104.53 5.688 105.042 5.656C105.81 5.624 106.346 5.608 106.65 5.608C106.922 5.608 107.154 5.68 107.346 5.824C107.554 5.952 107.658 6.144 107.658 6.4C107.658 7.008 107.378 7.368 106.818 7.48C106.306 7.624 105.378 7.712 104.034 7.744C103.922 9.312 103.866 10.552 103.866 11.464C103.866 12.024 103.89 12.424 103.938 12.664C104.034 13.16 104.194 13.528 104.418 13.768C104.658 13.992 105.01 14.104 105.474 14.104C105.698 14.104 106.034 14.048 106.482 13.936C106.754 13.856 106.97 13.816 107.13 13.816C107.338 13.816 107.498 13.888 107.61 14.032C107.722 14.176 107.778 14.368 107.778 14.608C107.778 15.04 107.498 15.4 106.938 15.688C106.378 15.96 105.714 16.096 104.946 16.096C104.466 16.096 103.994 15.984 103.53 15.76C103.066 15.52 102.674 15.232 102.354 14.896C102.29 14.864 102.194 14.688 102.066 14.368C101.954 14.048 101.842 13.696 101.73 13.312C101.682 13.12 101.658 12.656 101.658 11.92C101.658 11.216 101.706 10 101.802 8.272L101.826 7.744C101.714 7.744 101.506 7.736 101.202 7.72C100.898 7.688 100.674 7.664 100.53 7.648Z" fill="white"/>
</svg>
