<svg width="75" height="17" viewBox="0 0 75 17" fill="none" xmlns="http://www.w3.org/2000/svg">
<path d="M10.76 2.512C10.76 2.048 10.864 1.648 11.072 1.312C11.296 0.96 11.624 0.784 12.056 0.784C12.424 0.784 12.752 0.856 13.04 1C13.328 1.144 13.472 1.384 13.472 1.72C13.472 2.376 13.44 3.296 13.376 4.48C13.312 5.632 13.28 6.488 13.28 7.048C13.28 7.928 13.312 9.104 13.376 10.576C13.44 11.984 13.472 13.016 13.472 13.672C13.472 14.2 13.464 14.592 13.448 14.848C13.448 15.104 13.304 15.36 13.016 15.616C12.744 15.856 12.32 15.976 11.744 15.976C11.44 15.976 11.176 15.928 10.952 15.832C10.744 15.72 10.6 15.6 10.52 15.472C9.768 14.56 8.672 13.008 7.232 10.816C5.616 8.368 4.296 6.496 3.272 5.2C3.4 6.352 3.464 7.76 3.464 9.424C3.464 10.16 3.448 11.12 3.416 12.304C3.4 13.472 3.368 14.24 3.32 14.608C3.256 15.072 3.112 15.432 2.888 15.688C2.68 15.928 2.344 16.048 1.88 16.048C1.528 16.048 1.264 15.952 1.088 15.76C0.928 15.552 0.832 15.2 0.8 14.704C0.784 14.048 0.824 13.064 0.92 11.752C0.936 11.544 0.96 11.184 0.992 10.672C1.024 10.16 1.04 9.704 1.04 9.304C1.04 8.2 0.984 6.936 0.872 5.512C0.776 3.944 0.728 2.784 0.728 2.032C0.728 1.648 0.864 1.352 1.136 1.144C1.424 0.935999 1.752 0.831999 2.12 0.831999C2.44 0.831999 2.776 0.911999 3.128 1.072C4.504 2.8 6.368 5.376 8.72 8.8L10.976 12.256C10.992 12 11 11.64 11 11.176C11 10.36 10.984 9.48 10.952 8.536C10.92 7.592 10.896 6.952 10.88 6.616C10.8 5.064 10.76 3.696 10.76 2.512ZM16.2753 10.912C16.2753 10.304 16.3873 9.696 16.6113 9.088C16.8353 8.464 17.1313 7.896 17.4993 7.384C17.8673 6.872 18.4513 6.456 19.2513 6.136C20.0513 5.8 20.7633 5.632 21.3873 5.632C22.0273 5.632 22.6753 5.72 23.3313 5.896C24.0033 6.072 24.4673 6.344 24.7233 6.712C25.3153 7.544 25.6113 8.36 25.6113 9.16C25.6113 9.592 25.5153 9.96 25.3233 10.264C25.1473 10.568 24.8913 10.896 24.5553 11.248C24.2833 11.536 23.8513 11.728 23.2593 11.824C22.6833 11.92 22.1073 11.968 21.5313 11.968C21.1633 11.968 20.7153 11.936 20.1873 11.872C19.6593 11.792 19.1473 11.696 18.6513 11.584C18.6833 11.904 18.7633 12.216 18.8913 12.52C19.0193 12.824 19.1713 13.056 19.3473 13.216C19.6673 13.52 19.9953 13.712 20.3313 13.792C20.6833 13.872 21.1313 13.912 21.6753 13.912C22.2513 13.912 22.7873 13.816 23.2833 13.624C23.6833 13.48 24.0113 13.408 24.2673 13.408C24.5713 13.408 24.8033 13.504 24.9633 13.696C25.1233 13.872 25.2033 14.104 25.2033 14.392C25.2033 14.792 24.9713 15.12 24.5073 15.376C24.0433 15.632 23.5073 15.824 22.8993 15.952C22.3073 16.064 21.8273 16.12 21.4593 16.12C20.7073 16.12 19.9793 15.984 19.2753 15.712C18.5713 15.44 17.9873 15.056 17.5233 14.56C17.1393 14.112 16.8353 13.576 16.6113 12.952C16.3873 12.312 16.2753 11.632 16.2753 10.912ZM21.5073 7.672C21.1553 7.672 20.8033 7.744 20.4513 7.888C20.0993 8.016 19.8113 8.2 19.5873 8.44C19.2993 8.744 19.0993 8.992 18.9873 9.184C18.8913 9.36 18.8273 9.608 18.7953 9.928C19.1953 10.056 20.0273 10.12 21.2913 10.12C21.9793 10.12 22.5073 10.016 22.8753 9.808C23.2593 9.6 23.4513 9.328 23.4513 8.992C23.4513 8.656 23.2433 8.352 22.8273 8.08C22.4113 7.808 21.9713 7.672 21.5073 7.672ZM36.0168 5.416C36.3368 5.416 36.5848 5.496 36.7608 5.656C36.9528 5.8 37.0488 5.984 37.0488 6.208C37.0488 6.368 37.0168 6.536 36.9528 6.712C36.9048 6.872 36.8488 7.04 36.7848 7.216C36.4168 8.08 35.6408 9.288 34.4568 10.84C35.6728 12.408 36.6568 13.416 37.4088 13.864C37.4728 13.896 37.5928 13.952 37.7688 14.032C37.9448 14.112 38.0808 14.208 38.1768 14.32C38.2888 14.432 38.3448 14.56 38.3448 14.704C38.3448 15.056 38.2088 15.344 37.9368 15.568C37.6808 15.776 37.3688 15.88 37.0008 15.88C36.3768 15.88 35.6968 15.536 34.9608 14.848C34.2248 14.144 33.6008 13.408 33.0888 12.64C32.7208 13.2 32.2968 13.76 31.8168 14.32C31.3528 14.864 30.9208 15.328 30.5208 15.712C30.3608 15.888 30.1688 16.024 29.9448 16.12C29.7368 16.216 29.5288 16.264 29.3208 16.264C29.0328 16.264 28.7768 16.2 28.5528 16.072C28.3288 15.944 28.2168 15.72 28.2168 15.4C28.2168 15.32 28.2728 15.192 28.3848 15.016C28.4968 14.824 28.5608 14.712 28.5768 14.68C28.7688 14.344 29.0248 14 29.3448 13.648C29.6648 13.28 29.8648 13.048 29.9448 12.952C30.1368 12.712 30.3448 12.48 30.5688 12.256C30.6968 12.112 30.8888 11.888 31.1448 11.584C31.4008 11.28 31.5768 11.04 31.6728 10.864L30.8328 9.712C30.4328 9.248 30.0888 8.88 29.8008 8.608C29.5128 8.32 29.2808 8.176 29.1048 8.176C28.8488 8.176 28.6088 8.248 28.3848 8.392C28.1928 8.52 28.0008 8.584 27.8088 8.584C27.6008 8.584 27.4408 8.536 27.3288 8.44C27.2168 8.328 27.1608 8.208 27.1608 8.08C27.1608 7.536 27.3768 7.072 27.8088 6.688C28.2408 6.288 28.7848 6.088 29.4408 6.088C30.0648 6.088 30.6168 6.304 31.0968 6.736C31.5928 7.152 32.0808 7.712 32.5608 8.416C32.6248 8.48 32.6968 8.584 32.7768 8.728C32.8568 8.872 32.9368 8.992 33.0168 9.088C33.1928 8.832 33.5128 8.336 33.9768 7.6C34.4728 6.72 34.7688 6.216 34.8648 6.088C35.2008 5.64 35.5848 5.416 36.0168 5.416ZM39.7876 7.648C39.5636 7.616 39.3796 7.528 39.2356 7.384C39.1076 7.224 39.0436 7.032 39.0436 6.808C39.0436 6.52 39.1556 6.28 39.3796 6.088C39.4276 6.04 39.5076 6 39.6196 5.968C39.7316 5.92 39.8196 5.88 39.8836 5.848C40.2356 5.736 40.4596 5.648 40.5556 5.584C40.9236 5.36 41.1716 4.992 41.2996 4.48C41.4276 3.872 41.5076 3.456 41.5396 3.232C41.5716 2.88 41.6836 2.616 41.8756 2.44C42.0836 2.248 42.3396 2.152 42.6436 2.152C43.0436 2.152 43.3236 2.256 43.4836 2.464C43.6436 2.672 43.7236 3.056 43.7236 3.616C43.7236 4.352 43.5476 5.048 43.1956 5.704C43.4196 5.704 43.7876 5.688 44.2996 5.656C45.0676 5.624 45.6036 5.608 45.9076 5.608C46.1796 5.608 46.4116 5.68 46.6036 5.824C46.8116 5.952 46.9156 6.144 46.9156 6.4C46.9156 7.008 46.6356 7.368 46.0756 7.48C45.5636 7.624 44.6356 7.712 43.2916 7.744C43.1796 9.312 43.1236 10.552 43.1236 11.464C43.1236 12.024 43.1476 12.424 43.1956 12.664C43.2916 13.16 43.4516 13.528 43.6756 13.768C43.9156 13.992 44.2676 14.104 44.7316 14.104C44.9556 14.104 45.2916 14.048 45.7396 13.936C46.0116 13.856 46.2276 13.816 46.3876 13.816C46.5956 13.816 46.7556 13.888 46.8676 14.032C46.9796 14.176 47.0356 14.368 47.0356 14.608C47.0356 15.04 46.7556 15.4 46.1956 15.688C45.6356 15.96 44.9716 16.096 44.2036 16.096C43.7236 16.096 43.2516 15.984 42.7876 15.76C42.3236 15.52 41.9316 15.232 41.6116 14.896C41.5476 14.864 41.4516 14.688 41.3236 14.368C41.2116 14.048 41.0996 13.696 40.9876 13.312C40.9396 13.12 40.9156 12.656 40.9156 11.92C40.9156 11.216 40.9636 10 41.0596 8.272L41.0836 7.744C40.9716 7.744 40.7636 7.736 40.4596 7.72C40.1556 7.688 39.9316 7.664 39.7876 7.648ZM52.1002 14.68C52.1002 15.08 51.9402 15.456 51.6202 15.808C51.3002 16.144 50.9482 16.312 50.5642 16.312C50.1162 16.312 49.7082 16.192 49.3402 15.952C48.9722 15.696 48.7882 15.376 48.7882 14.992C48.7882 14.384 48.9002 13.936 49.1242 13.648C49.3642 13.36 49.7162 13.216 50.1802 13.216C50.7242 13.216 51.1802 13.352 51.5482 13.624C51.9162 13.88 52.1002 14.232 52.1002 14.68ZM61.1024 0.975999C61.5984 0.975999 61.9504 1.096 62.1584 1.336C62.3824 1.56 62.4944 1.896 62.4944 2.344C62.4784 3.272 62.5344 4.64 62.6624 6.448C62.7744 7.728 62.8304 8.776 62.8304 9.592C62.8304 11.72 62.4384 13.344 61.6544 14.464C60.8704 15.568 59.6064 16.12 57.8624 16.12C56.7904 16.12 55.8704 15.808 55.1024 15.184C54.3504 14.544 53.8944 13.592 53.7344 12.328V12.184C53.7344 11.864 53.8704 11.616 54.1424 11.44C54.4144 11.248 54.7504 11.152 55.1504 11.152C55.6304 11.152 55.9424 11.456 56.0864 12.064C56.2784 12.736 56.5104 13.216 56.7824 13.504C57.0704 13.776 57.4464 13.912 57.9104 13.912C58.8544 13.912 59.4864 13.488 59.8064 12.64C60.1424 11.792 60.3104 10.584 60.3104 9.016C60.3104 8.12 60.2384 7.04 60.0944 5.776C59.9664 4.432 59.9024 3.432 59.9024 2.776C59.9024 2.12 59.9904 1.656 60.1664 1.384C60.3584 1.112 60.6704 0.975999 61.1024 0.975999ZM72.5489 10.504C73.1889 10.872 73.6369 11.24 73.8929 11.608C74.1489 11.96 74.2769 12.424 74.2769 13C74.2769 13.576 74.1089 14.088 73.7729 14.536C73.4369 14.968 73.0049 15.304 72.4769 15.544C72.0929 15.72 71.6129 15.856 71.0369 15.952C70.4769 16.048 70.0369 16.096 69.7169 16.096C69.1569 16.096 68.5489 15.992 67.8929 15.784C67.2369 15.576 66.6769 15.28 66.2129 14.896C65.7649 14.512 65.5409 14.064 65.5409 13.552C65.5409 13.232 65.6449 12.984 65.8529 12.808C66.0609 12.616 66.3329 12.52 66.6689 12.52C66.9409 12.52 67.2289 12.712 67.5329 13.096C67.8369 13.432 68.1889 13.688 68.5889 13.864C69.0049 14.04 69.4129 14.128 69.8129 14.128C71.3329 14.128 72.0929 13.784 72.0929 13.096C72.0929 12.952 72.0449 12.816 71.9489 12.688C71.8529 12.544 71.7649 12.448 71.6849 12.4C71.5409 12.288 71.3409 12.192 71.0849 12.112C70.8289 12.032 70.5729 11.968 70.3169 11.92C70.0609 11.856 69.8689 11.808 69.7409 11.776C69.6129 11.744 69.3409 11.688 68.9249 11.608C68.5249 11.528 68.1409 11.392 67.7729 11.2C67.1649 10.912 66.6689 10.56 66.2849 10.144C65.9169 9.728 65.7329 9.192 65.7329 8.536C65.7329 8.168 65.8209 7.8 65.9969 7.432C66.1889 7.048 66.4449 6.76 66.7649 6.568C67.2449 6.264 67.7729 6.032 68.3489 5.872C68.9249 5.712 69.4609 5.632 69.9569 5.632C70.3569 5.632 70.8049 5.672 71.3009 5.752C71.8129 5.832 72.1809 5.944 72.4049 6.088C72.8209 6.312 73.1249 6.544 73.3169 6.784C73.5089 7.024 73.6049 7.328 73.6049 7.696C73.6049 7.872 73.5649 8.048 73.4849 8.224C73.4049 8.384 73.3089 8.496 73.1969 8.56C72.9409 8.656 72.7169 8.704 72.5249 8.704C72.3809 8.704 72.2609 8.68 72.1649 8.632C72.0689 8.568 71.9809 8.504 71.9009 8.44C71.8369 8.376 71.7969 8.336 71.7809 8.32C71.5729 8.096 71.3409 7.92 71.0849 7.792C70.8289 7.664 70.4529 7.6 69.9569 7.6C69.6369 7.6 69.3249 7.648 69.0209 7.744C68.7329 7.824 68.5089 7.928 68.3489 8.056C68.2209 8.152 68.1329 8.24 68.0849 8.32C68.0369 8.384 68.0129 8.472 68.0129 8.584C68.0129 9.032 68.4609 9.36 69.3569 9.568C70.2689 9.776 70.7489 9.888 70.7969 9.904C70.8929 9.936 71.1569 10.016 71.5889 10.144C72.0369 10.272 72.3569 10.392 72.5489 10.504Z" fill="white"/>
</svg>
