<svg width="74" height="22" viewBox="0 0 74 22" fill="none" xmlns="http://www.w3.org/2000/svg">
<path d="M10.76 3.512C10.76 3.048 10.864 2.648 11.072 2.312C11.296 1.96 11.624 1.784 12.056 1.784C12.424 1.784 12.752 1.856 13.04 2C13.328 2.144 13.472 2.384 13.472 2.72C13.472 3.376 13.44 4.296 13.376 5.48C13.312 6.632 13.28 7.488 13.28 8.048C13.28 8.928 13.312 10.104 13.376 11.576C13.44 12.984 13.472 14.016 13.472 14.672C13.472 15.2 13.464 15.592 13.448 15.848C13.448 16.104 13.304 16.36 13.016 16.616C12.744 16.856 12.32 16.976 11.744 16.976C11.44 16.976 11.176 16.928 10.952 16.832C10.744 16.72 10.6 16.6 10.52 16.472C9.768 15.56 8.672 14.008 7.232 11.816C5.616 9.368 4.296 7.496 3.272 6.2C3.4 7.352 3.464 8.76 3.464 10.424C3.464 11.16 3.448 12.12 3.416 13.304C3.4 14.472 3.368 15.24 3.32 15.608C3.256 16.072 3.112 16.432 2.888 16.688C2.68 16.928 2.344 17.048 1.88 17.048C1.528 17.048 1.264 16.952 1.088 16.76C0.928 16.552 0.832 16.2 0.8 15.704C0.784 15.048 0.824 14.064 0.92 12.752C0.936 12.544 0.96 12.184 0.992 11.672C1.024 11.16 1.04 10.704 1.04 10.304C1.04 9.2 0.984 7.936 0.872 6.512C0.776 4.944 0.728 3.784 0.728 3.032C0.728 2.648 0.864 2.352 1.136 2.144C1.424 1.936 1.752 1.832 2.12 1.832C2.44 1.832 2.776 1.912 3.128 2.072C4.504 3.8 6.368 6.376 8.72 9.8L10.976 13.256C10.992 13 11 12.64 11 12.176C11 11.36 10.984 10.48 10.952 9.536C10.92 8.592 10.896 7.952 10.88 7.616C10.8 6.064 10.76 4.696 10.76 3.512ZM25.9713 9.296C26.0993 9.52 26.2033 9.848 26.2833 10.28C26.3633 10.696 26.4033 11.072 26.4033 11.408C26.4033 12.032 26.2673 12.92 25.9953 14.072C24.8913 16.088 23.2593 17.096 21.0993 17.096C20.2993 17.096 19.4833 16.832 18.6513 16.304C17.8193 15.776 17.2433 15.168 16.9233 14.48C16.4913 13.104 16.2753 12.232 16.2753 11.864C16.2753 11.224 16.4113 10.544 16.6833 9.824C16.9713 9.104 17.3313 8.48 17.7633 7.952C18.0353 7.584 18.5233 7.272 19.2273 7.016C19.9313 6.744 20.5713 6.608 21.1473 6.608C22.2673 6.608 23.2193 6.824 24.0033 7.256C24.7873 7.672 25.4433 8.352 25.9713 9.296ZM23.8833 13.16C23.9633 12.952 24.0033 12.416 24.0033 11.552C24.0033 11.088 23.9153 10.632 23.7393 10.184C23.5793 9.736 23.3393 9.352 23.0193 9.032C22.9873 9 22.8993 8.952 22.7553 8.888C22.6113 8.808 22.4113 8.736 22.1553 8.672C21.9153 8.592 21.6353 8.552 21.3153 8.552C20.4193 8.552 19.7633 8.912 19.3473 9.632C18.9313 10.352 18.7233 11.168 18.7233 12.08C18.7233 12.24 18.7633 12.544 18.8433 12.992C18.9393 13.44 19.0193 13.72 19.0833 13.832C19.1313 13.944 19.2513 14.104 19.4433 14.312C19.6513 14.504 19.8993 14.68 20.1873 14.84C20.4913 14.984 20.8033 15.056 21.1233 15.056C21.8433 15.056 22.4193 14.888 22.8513 14.552C23.2833 14.2 23.6273 13.736 23.8833 13.16ZM38.3246 1.976C38.3246 2.136 38.2846 2.576 38.2046 3.296C38.0286 5.056 37.9406 6.84 37.9406 8.648C37.9406 10.232 37.9646 11.44 38.0126 12.272C38.0606 13.104 38.1806 13.744 38.3726 14.192C38.5646 14.624 38.8606 14.84 39.2606 14.84C40.0286 14.84 40.4126 15.096 40.4126 15.608C40.4126 15.944 40.2446 16.232 39.9086 16.472C39.5726 16.696 39.2046 16.808 38.8046 16.808C38.3246 16.808 37.8766 16.696 37.4606 16.472C37.0446 16.248 36.7166 15.904 36.4766 15.44C36.1406 15.936 35.6526 16.336 35.0126 16.64C34.3886 16.928 33.7806 17.072 33.1886 17.072C32.2766 17.072 31.4686 16.88 30.7646 16.496C30.0606 16.112 29.5166 15.592 29.1326 14.936C28.7486 14.264 28.5566 13.528 28.5566 12.728C28.5566 11.96 28.6446 11.224 28.8206 10.52C29.0126 9.8 29.2686 9.208 29.5886 8.744C30.0206 8.136 30.5966 7.656 31.3166 7.304C32.0526 6.936 32.7726 6.752 33.4766 6.752C33.9086 6.752 34.3166 6.84 34.7006 7.016C35.0846 7.176 35.4206 7.376 35.7086 7.616C35.7086 6.544 35.7006 5.872 35.6846 5.6V5.096C35.6846 3.608 35.7806 2.52 35.9726 1.832C36.1486 1.16 36.5726 0.823999 37.2446 0.823999C37.6126 0.823999 37.8846 0.903999 38.0606 1.064C38.2366 1.224 38.3246 1.528 38.3246 1.976ZM30.9326 12.68C30.9326 13.416 31.1406 14.008 31.5566 14.456C31.9886 14.904 32.5006 15.128 33.0926 15.128C33.9406 15.128 34.5646 14.864 34.9646 14.336C35.3806 13.808 35.5886 13.128 35.5886 12.296L35.5646 9.92C34.9406 9.232 34.2926 8.888 33.6206 8.888C33.1566 8.888 32.7166 9.008 32.3006 9.248C31.9006 9.472 31.5806 9.816 31.3406 10.28C31.0686 10.808 30.9326 11.608 30.9326 12.68ZM41.7508 11.504C41.7508 10.528 41.9668 9.72 42.3988 9.08C42.8308 8.424 43.4308 7.808 44.1988 7.232C44.4228 7.072 44.7988 6.936 45.3268 6.824C45.8548 6.696 46.3188 6.632 46.7188 6.632C47.1988 6.632 47.7028 6.736 48.2308 6.944C48.7748 7.136 49.2148 7.36 49.5508 7.616C50.1428 8.048 50.5508 8.552 50.7748 9.128C50.9988 9.688 51.1108 10.36 51.1108 11.144C51.1108 11.48 50.9188 11.808 50.5348 12.128C50.1668 12.432 49.7668 12.584 49.3348 12.584L48.4228 12.56C47.9588 12.56 47.2948 12.576 46.4308 12.608L45.9268 12.632C45.5748 12.664 45.3108 12.68 45.1348 12.68C44.8788 12.68 44.5268 12.648 44.0788 12.584C44.1428 13.336 44.4228 13.928 44.9188 14.36C45.4148 14.776 45.9508 14.984 46.5268 14.984C47.5348 14.984 48.2388 14.784 48.6388 14.384C48.9748 14.144 49.1988 13.992 49.3108 13.928C49.4228 13.864 49.5988 13.832 49.8388 13.832C50.0948 13.832 50.3188 13.952 50.5108 14.192C50.7028 14.432 50.7988 14.672 50.7988 14.912C50.7988 15.184 50.6308 15.464 50.2948 15.752C49.9748 16.024 49.5348 16.312 48.9748 16.616C48.6708 16.744 48.2548 16.856 47.7268 16.952C47.1988 17.048 46.7588 17.096 46.4068 17.096C45.8468 17.096 45.2228 16.936 44.5348 16.616C43.8468 16.28 43.3348 15.912 42.9988 15.512C42.6628 15.112 42.3668 14.544 42.1108 13.808C41.8708 13.072 41.7508 12.304 41.7508 11.504ZM46.5268 10.856C47.6628 10.856 48.4948 10.816 49.0228 10.736C48.9908 10.272 48.8468 9.896 48.5908 9.608C48.3348 9.304 47.9828 9.048 47.5348 8.84C47.3908 8.776 47.2628 8.728 47.1508 8.696C47.0388 8.664 46.9108 8.648 46.7668 8.648C46.0308 8.648 45.4068 8.848 44.8948 9.248C44.3988 9.648 44.1028 10.16 44.0068 10.784C44.8068 10.832 45.6468 10.856 46.5268 10.856ZM56.7174 15.68C56.7174 16.08 56.5574 16.456 56.2374 16.808C55.9174 17.144 55.5654 17.312 55.1814 17.312C54.7334 17.312 54.3254 17.192 53.9574 16.952C53.5894 16.696 53.4054 16.376 53.4054 15.992C53.4054 15.384 53.5174 14.936 53.7414 14.648C53.9814 14.36 54.3334 14.216 54.7974 14.216C55.3414 14.216 55.7974 14.352 56.1654 14.624C56.5334 14.88 56.7174 15.232 56.7174 15.68ZM60.3436 1.592C60.9036 1.64 61.3756 1.776 61.7596 2C62.1436 2.224 62.3356 2.584 62.3356 3.08C62.3356 3.448 62.1756 3.744 61.8556 3.968C61.5516 4.176 61.1676 4.28 60.7036 4.28C60.2236 4.28 59.8876 4.168 59.6956 3.944C59.5196 3.72 59.4316 3.488 59.4316 3.248C59.4316 2.784 59.4876 2.392 59.5996 2.072C59.7116 1.736 59.9596 1.576 60.3436 1.592ZM61.1356 6.584C61.5196 6.584 61.8156 6.696 62.0236 6.92C62.2316 7.128 62.3356 7.352 62.3356 7.592C62.3356 7.736 62.3196 7.984 62.2876 8.336C62.2396 8.864 62.2156 9.392 62.2156 9.92C62.2156 10.592 62.2396 11.256 62.2876 11.912C62.3196 12.584 62.3356 13.072 62.3356 13.376C62.3996 15.36 62.4316 16.976 62.4316 18.224C62.4316 19.44 62.1276 20.352 61.5196 20.96C60.9276 21.584 60.1036 21.896 59.0476 21.896C58.7276 21.896 58.3836 21.768 58.0156 21.512C57.6476 21.272 57.4636 21.008 57.4636 20.72C57.4636 20.48 57.5276 20.288 57.6556 20.144C57.7836 20 57.9356 19.928 58.1116 19.928C58.2236 19.928 58.3676 19.952 58.5436 20C58.7356 20.048 58.8796 20.072 58.9756 20.072C59.2476 20.072 59.4636 20.032 59.6236 19.952C59.7836 19.872 59.9116 19.672 60.0076 19.352C60.1036 19.032 60.1516 18.536 60.1516 17.864C60.1516 14.328 60.0636 11.6 59.8876 9.68C59.7916 8.72 59.7436 7.992 59.7436 7.496C59.7436 7.272 59.8556 7.064 60.0796 6.872C60.3196 6.68 60.6716 6.584 61.1356 6.584ZM72.0333 11.504C72.6733 11.872 73.1213 12.24 73.3773 12.608C73.6333 12.96 73.7613 13.424 73.7613 14C73.7613 14.576 73.5933 15.088 73.2573 15.536C72.9213 15.968 72.4893 16.304 71.9613 16.544C71.5773 16.72 71.0973 16.856 70.5213 16.952C69.9613 17.048 69.5213 17.096 69.2013 17.096C68.6413 17.096 68.0333 16.992 67.3773 16.784C66.7213 16.576 66.1613 16.28 65.6973 15.896C65.2493 15.512 65.0253 15.064 65.0253 14.552C65.0253 14.232 65.1293 13.984 65.3373 13.808C65.5453 13.616 65.8173 13.52 66.1533 13.52C66.4253 13.52 66.7133 13.712 67.0173 14.096C67.3213 14.432 67.6733 14.688 68.0733 14.864C68.4893 15.04 68.8973 15.128 69.2973 15.128C70.8173 15.128 71.5773 14.784 71.5773 14.096C71.5773 13.952 71.5293 13.816 71.4333 13.688C71.3373 13.544 71.2493 13.448 71.1693 13.4C71.0253 13.288 70.8253 13.192 70.5693 13.112C70.3133 13.032 70.0573 12.968 69.8013 12.92C69.5453 12.856 69.3533 12.808 69.2253 12.776C69.0973 12.744 68.8253 12.688 68.4093 12.608C68.0093 12.528 67.6253 12.392 67.2573 12.2C66.6493 11.912 66.1533 11.56 65.7693 11.144C65.4013 10.728 65.2173 10.192 65.2173 9.536C65.2173 9.168 65.3053 8.8 65.4813 8.432C65.6733 8.048 65.9293 7.76 66.2493 7.568C66.7293 7.264 67.2573 7.032 67.8333 6.872C68.4093 6.712 68.9453 6.632 69.4413 6.632C69.8413 6.632 70.2893 6.672 70.7853 6.752C71.2973 6.832 71.6653 6.944 71.8893 7.088C72.3053 7.312 72.6093 7.544 72.8013 7.784C72.9933 8.024 73.0893 8.328 73.0893 8.696C73.0893 8.872 73.0493 9.048 72.9693 9.224C72.8893 9.384 72.7933 9.496 72.6813 9.56C72.4253 9.656 72.2013 9.704 72.0093 9.704C71.8653 9.704 71.7453 9.68 71.6493 9.632C71.5533 9.568 71.4653 9.504 71.3853 9.44C71.3213 9.376 71.2813 9.336 71.2653 9.32C71.0573 9.096 70.8253 8.92 70.5693 8.792C70.3133 8.664 69.9373 8.6 69.4413 8.6C69.1213 8.6 68.8093 8.648 68.5053 8.744C68.2173 8.824 67.9933 8.928 67.8333 9.056C67.7053 9.152 67.6173 9.24 67.5693 9.32C67.5213 9.384 67.4973 9.472 67.4973 9.584C67.4973 10.032 67.9453 10.36 68.8413 10.568C69.7533 10.776 70.2333 10.888 70.2813 10.904C70.3773 10.936 70.6413 11.016 71.0733 11.144C71.5213 11.272 71.8413 11.392 72.0333 11.504Z" fill="white"/>
</svg>
