<svg width="84" height="17" viewBox="0 0 84 17" fill="none" xmlns="http://www.w3.org/2000/svg">
<path d="M8.504 9.64C9.064 10.584 9.624 11.424 10.184 12.16C10.76 12.88 11.512 13.768 12.44 14.824C12.552 14.936 12.608 15.064 12.608 15.208C12.608 15.432 12.48 15.624 12.224 15.784C11.984 15.944 11.688 16.024 11.336 16.024C10.84 16.024 10.304 15.816 9.728 15.4C9.216 15.032 8.76 14.544 8.36 13.936C7.96 13.328 7.496 12.536 6.968 11.56C6.552 10.808 6.304 10.368 6.224 10.24C5.6 10.496 4.624 10.656 3.296 10.72C3.296 11.264 3.344 12 3.44 12.928C3.536 13.888 3.584 14.584 3.584 15.016C3.584 15.304 3.44 15.544 3.152 15.736C2.88 15.928 2.568 16.024 2.216 16.024C1.8 16.024 1.48 15.856 1.256 15.52C1.032 15.072 0.888 14.536 0.824 13.912C0.76 13.288 0.728 12.544 0.728 11.68C0.728 10.768 0.784 9.736 0.896 8.584C0.992 7.304 1.04 6.36 1.04 5.752C1.04 5.256 0.992 4.592 0.896 3.76C0.88 3.616 0.856 3.368 0.824 3.016C0.792 2.664 0.776 2.344 0.776 2.056C0.776 1.832 0.856 1.64 1.016 1.48C1.192 1.304 1.376 1.184 1.568 1.12C2.864 0.912 4.128 0.808 5.36 0.808C7.456 0.808 9.192 1.2 10.568 1.984C11.944 2.768 12.632 3.96 12.632 5.56C12.632 6.056 12.52 6.536 12.296 7C12.088 7.448 11.8 7.824 11.432 8.128C10.456 8.88 9.48 9.384 8.504 9.64ZM10.112 5.488C10.112 4.72 9.704 4.096 8.888 3.616C8.072 3.12 6.912 2.872 5.408 2.872C4.736 2.872 4.072 2.952 3.416 3.112L3.44 4.336C3.44 5.04 3.416 5.728 3.368 6.4C3.32 7.072 3.296 7.792 3.296 8.56C3.568 8.496 3.856 8.456 4.16 8.44C4.464 8.408 4.664 8.384 4.76 8.368C5.464 8.304 6.008 8.224 6.392 8.128C7.112 7.904 7.704 7.704 8.168 7.528C8.648 7.336 9.088 7.072 9.488 6.736C9.904 6.384 10.112 5.968 10.112 5.488ZM14.4238 10.912C14.4238 10.304 14.5358 9.696 14.7598 9.088C14.9838 8.464 15.2798 7.896 15.6478 7.384C16.0158 6.872 16.5998 6.456 17.3998 6.136C18.1998 5.8 18.9118 5.632 19.5358 5.632C20.1758 5.632 20.8238 5.72 21.4798 5.896C22.1518 6.072 22.6158 6.344 22.8718 6.712C23.4638 7.544 23.7598 8.36 23.7598 9.16C23.7598 9.592 23.6638 9.96 23.4718 10.264C23.2958 10.568 23.0398 10.896 22.7038 11.248C22.4318 11.536 21.9998 11.728 21.4078 11.824C20.8318 11.92 20.2558 11.968 19.6797 11.968C19.3118 11.968 18.8638 11.936 18.3358 11.872C17.8078 11.792 17.2958 11.696 16.7998 11.584C16.8318 11.904 16.9118 12.216 17.0398 12.52C17.1678 12.824 17.3198 13.056 17.4958 13.216C17.8158 13.52 18.1438 13.712 18.4798 13.792C18.8318 13.872 19.2798 13.912 19.8238 13.912C20.3998 13.912 20.9358 13.816 21.4318 13.624C21.8318 13.48 22.1598 13.408 22.4158 13.408C22.7198 13.408 22.9518 13.504 23.1118 13.696C23.2718 13.872 23.3518 14.104 23.3518 14.392C23.3518 14.792 23.1198 15.12 22.6558 15.376C22.1918 15.632 21.6558 15.824 21.0478 15.952C20.4558 16.064 19.9758 16.12 19.6078 16.12C18.8558 16.12 18.1278 15.984 17.4238 15.712C16.7198 15.44 16.1358 15.056 15.6718 14.56C15.2878 14.112 14.9838 13.576 14.7598 12.952C14.5358 12.312 14.4238 11.632 14.4238 10.912ZM19.6558 7.672C19.3038 7.672 18.9518 7.744 18.5998 7.888C18.2478 8.016 17.9598 8.2 17.7358 8.44C17.4478 8.744 17.2478 8.992 17.1358 9.184C17.0398 9.36 16.9758 9.608 16.9438 9.928C17.3438 10.056 18.1758 10.12 19.4398 10.12C20.1278 10.12 20.6558 10.016 21.0238 9.808C21.4078 9.6 21.5998 9.328 21.5998 8.992C21.5998 8.656 21.3918 8.352 20.9758 8.08C20.5598 7.808 20.1198 7.672 19.6558 7.672ZM35.1733 16.096C34.6293 16.096 34.2133 16.016 33.9253 15.856C33.6373 15.68 33.3253 15.36 32.9893 14.896C32.5733 15.264 31.9493 15.56 31.1172 15.784C30.3013 16.008 29.5973 16.12 29.0053 16.12C28.0293 16.12 27.2373 15.856 26.6293 15.328C26.0373 14.784 25.7413 13.992 25.7413 12.952C25.7413 12.504 25.8613 12.096 26.1013 11.728C26.3573 11.344 26.6853 11.008 27.0853 10.72C27.5333 10.416 28.0613 10.176 28.6693 10C29.2933 9.824 29.8613 9.736 30.3733 9.736C31.2373 9.736 32.0053 9.816 32.6773 9.976V9.952C32.6773 9.088 32.4613 8.496 32.0293 8.176C31.6133 7.84 30.9413 7.672 30.0133 7.672C29.4213 7.672 28.9093 7.936 28.4773 8.464C28.3173 8.672 27.9813 8.776 27.4693 8.776C27.2133 8.776 27.0213 8.672 26.8933 8.464C26.7813 8.24 26.7253 8.016 26.7253 7.792C26.7253 7.328 26.9173 6.928 27.3013 6.592C27.7013 6.256 28.1813 6.008 28.7413 5.848C29.3013 5.672 29.8213 5.584 30.3013 5.584C30.7653 5.584 31.3173 5.68 31.9573 5.872C32.5973 6.064 33.1173 6.32 33.5173 6.64C33.9973 7.056 34.3653 7.544 34.6213 8.104C34.8933 8.648 35.0293 9.248 35.0293 9.904C35.0293 10.112 35.0133 10.424 34.9813 10.84C34.9493 11.32 34.9333 11.712 34.9333 12.016C34.9333 12.16 34.9173 12.344 34.8853 12.568C34.8533 12.856 34.8373 13.096 34.8373 13.288C34.8373 13.496 34.9013 13.696 35.0293 13.888C35.1573 14.08 35.3333 14.24 35.5573 14.368C35.7653 14.48 35.9013 14.6 35.9653 14.728C36.0293 14.856 36.0613 15 36.0613 15.16C36.0613 15.32 35.9573 15.52 35.7493 15.76C35.5573 15.984 35.3653 16.096 35.1733 16.096ZM30.3733 11.512C29.7493 11.512 29.1973 11.632 28.7173 11.872C28.2373 12.112 27.9973 12.536 27.9973 13.144C27.9973 13.448 28.1013 13.704 28.3092 13.912C28.5333 14.12 28.7733 14.224 29.0293 14.224C29.7173 14.224 30.2933 14.152 30.7573 14.008C31.2213 13.864 31.7813 13.6 32.4373 13.216C32.5173 12.96 32.5653 12.6 32.5813 12.136C32.5813 11.96 32.5893 11.824 32.6053 11.728C31.7413 11.584 30.9973 11.512 30.3733 11.512ZM46.3858 7.984C46.3858 8.688 46.0258 9.04 45.3058 9.04C45.0658 9.04 44.8658 8.984 44.7058 8.872C44.5458 8.76 44.3698 8.592 44.1778 8.368C43.6978 7.84 43.2818 7.576 42.9297 7.576C42.4658 7.576 42.0098 7.712 41.5618 7.984C41.1298 8.256 40.7778 8.64 40.5058 9.136C40.2338 9.632 40.0978 10.184 40.0978 10.792C40.0978 11.464 40.2258 12.024 40.4818 12.472C40.7538 12.92 41.1698 13.304 41.7298 13.624C41.9378 13.736 42.1778 13.824 42.4498 13.888C42.7378 13.952 42.9858 13.984 43.1938 13.984C43.6578 13.984 44.2418 13.8 44.9458 13.432C45.2018 13.304 45.4178 13.208 45.5938 13.144C45.7698 13.08 45.9538 13.048 46.1458 13.048C46.3218 13.048 46.5218 13.128 46.7458 13.288C46.9698 13.448 47.0818 13.648 47.0818 13.888C47.0818 14.368 46.8578 14.776 46.4098 15.112C45.9618 15.432 45.4098 15.68 44.7538 15.856C44.1138 16.016 43.4978 16.096 42.9058 16.096C41.9618 16.096 41.0818 15.88 40.2658 15.448C39.4658 15.016 38.8258 14.424 38.3458 13.672C37.8658 12.904 37.6258 12.04 37.6258 11.08C37.6258 10.056 37.8578 9.12 38.3218 8.272C38.7858 7.424 39.4098 6.76 40.1938 6.28C40.9778 5.8 41.8338 5.56 42.7617 5.56C43.2898 5.56 43.8338 5.656 44.3938 5.848C44.9538 6.04 45.4258 6.32 45.8098 6.688C46.1938 7.056 46.3858 7.488 46.3858 7.984ZM49.1158 7.648C48.8918 7.616 48.7078 7.528 48.5638 7.384C48.4358 7.224 48.3718 7.032 48.3718 6.808C48.3718 6.52 48.4838 6.28 48.7078 6.088C48.7558 6.04 48.8358 6 48.9478 5.968C49.0598 5.92 49.1478 5.88 49.2118 5.848C49.5638 5.736 49.7878 5.648 49.8838 5.584C50.2518 5.36 50.4998 4.992 50.6278 4.48C50.7558 3.872 50.8358 3.456 50.8678 3.232C50.8998 2.88 51.0118 2.616 51.2038 2.44C51.4118 2.248 51.6678 2.152 51.9718 2.152C52.3718 2.152 52.6518 2.256 52.8118 2.464C52.9718 2.672 53.0518 3.056 53.0518 3.616C53.0518 4.352 52.8758 5.048 52.5238 5.704C52.7478 5.704 53.1158 5.688 53.6278 5.656C54.3958 5.624 54.9318 5.608 55.2358 5.608C55.5078 5.608 55.7398 5.68 55.9318 5.824C56.1398 5.952 56.2438 6.144 56.2438 6.4C56.2438 7.008 55.9638 7.368 55.4038 7.48C54.8918 7.624 53.9638 7.712 52.6198 7.744C52.5078 9.312 52.4518 10.552 52.4518 11.464C52.4518 12.024 52.4758 12.424 52.5238 12.664C52.6198 13.16 52.7798 13.528 53.0038 13.768C53.2438 13.992 53.5958 14.104 54.0598 14.104C54.2838 14.104 54.6198 14.048 55.0678 13.936C55.3398 13.856 55.5558 13.816 55.7158 13.816C55.9238 13.816 56.0838 13.888 56.1958 14.032C56.3078 14.176 56.3638 14.368 56.3638 14.608C56.3638 15.04 56.0838 15.4 55.5238 15.688C54.9638 15.96 54.2998 16.096 53.5318 16.096C53.0518 16.096 52.5798 15.984 52.1158 15.76C51.6518 15.52 51.2598 15.232 50.9398 14.896C50.8758 14.864 50.7798 14.688 50.6518 14.368C50.5398 14.048 50.4278 13.696 50.3158 13.312C50.2678 13.12 50.2438 12.656 50.2438 11.92C50.2438 11.216 50.2918 10 50.3878 8.272L50.4118 7.744C50.2998 7.744 50.0918 7.736 49.7878 7.72C49.4838 7.688 49.2598 7.664 49.1158 7.648ZM61.4283 14.68C61.4283 15.08 61.2683 15.456 60.9483 15.808C60.6283 16.144 60.2763 16.312 59.8923 16.312C59.4443 16.312 59.0363 16.192 58.6683 15.952C58.3003 15.696 58.1163 15.376 58.1163 14.992C58.1163 14.384 58.2283 13.936 58.4523 13.648C58.6923 13.36 59.0443 13.216 59.5083 13.216C60.0523 13.216 60.5083 13.352 60.8763 13.624C61.2443 13.88 61.4283 14.232 61.4283 14.68ZM70.4306 0.975999C70.9266 0.975999 71.2786 1.096 71.4866 1.336C71.7106 1.56 71.8226 1.896 71.8226 2.344C71.8066 3.272 71.8626 4.64 71.9906 6.448C72.1026 7.728 72.1586 8.776 72.1586 9.592C72.1586 11.72 71.7666 13.344 70.9826 14.464C70.1986 15.568 68.9346 16.12 67.1906 16.12C66.1186 16.12 65.1986 15.808 64.4306 15.184C63.6786 14.544 63.2226 13.592 63.0626 12.328V12.184C63.0626 11.864 63.1986 11.616 63.4706 11.44C63.7426 11.248 64.0786 11.152 64.4786 11.152C64.9586 11.152 65.2706 11.456 65.4146 12.064C65.6066 12.736 65.8386 13.216 66.1106 13.504C66.3986 13.776 66.7746 13.912 67.2386 13.912C68.1826 13.912 68.8146 13.488 69.1346 12.64C69.4706 11.792 69.6386 10.584 69.6386 9.016C69.6386 8.12 69.5666 7.04 69.4226 5.776C69.2946 4.432 69.2306 3.432 69.2306 2.776C69.2306 2.12 69.3186 1.656 69.4946 1.384C69.6866 1.112 69.9986 0.975999 70.4306 0.975999ZM81.8771 10.504C82.5171 10.872 82.9651 11.24 83.2211 11.608C83.4771 11.96 83.6051 12.424 83.6051 13C83.6051 13.576 83.4371 14.088 83.1011 14.536C82.7651 14.968 82.3331 15.304 81.8051 15.544C81.4211 15.72 80.9411 15.856 80.3651 15.952C79.8051 16.048 79.3651 16.096 79.0451 16.096C78.4851 16.096 77.8771 15.992 77.2211 15.784C76.5651 15.576 76.0051 15.28 75.5411 14.896C75.0931 14.512 74.8691 14.064 74.8691 13.552C74.8691 13.232 74.9731 12.984 75.1811 12.808C75.3891 12.616 75.6611 12.52 75.9971 12.52C76.2691 12.52 76.5571 12.712 76.8611 13.096C77.1651 13.432 77.5171 13.688 77.9171 13.864C78.3331 14.04 78.7411 14.128 79.1411 14.128C80.6611 14.128 81.4211 13.784 81.4211 13.096C81.4211 12.952 81.3731 12.816 81.2771 12.688C81.1811 12.544 81.0931 12.448 81.0131 12.4C80.8691 12.288 80.6691 12.192 80.4131 12.112C80.1571 12.032 79.9011 11.968 79.6451 11.92C79.3891 11.856 79.1971 11.808 79.0691 11.776C78.9411 11.744 78.6691 11.688 78.2531 11.608C77.8531 11.528 77.4691 11.392 77.1011 11.2C76.4931 10.912 75.9971 10.56 75.6131 10.144C75.2451 9.728 75.0611 9.192 75.0611 8.536C75.0611 8.168 75.1491 7.8 75.3251 7.432C75.5171 7.048 75.7731 6.76 76.0931 6.568C76.5731 6.264 77.1011 6.032 77.6771 5.872C78.2531 5.712 78.7891 5.632 79.2851 5.632C79.6851 5.632 80.1331 5.672 80.6291 5.752C81.1411 5.832 81.5091 5.944 81.7331 6.088C82.1491 6.312 82.4531 6.544 82.6451 6.784C82.8371 7.024 82.9331 7.328 82.9331 7.696C82.9331 7.872 82.8931 8.048 82.8131 8.224C82.7331 8.384 82.6371 8.496 82.5251 8.56C82.2691 8.656 82.0451 8.704 81.8531 8.704C81.7091 8.704 81.5891 8.68 81.4931 8.632C81.3971 8.568 81.3091 8.504 81.2291 8.44C81.1651 8.376 81.1251 8.336 81.1091 8.32C80.9011 8.096 80.6691 7.92 80.4131 7.792C80.1571 7.664 79.7811 7.6 79.2851 7.6C78.9651 7.6 78.6531 7.648 78.3491 7.744C78.0611 7.824 77.8371 7.928 77.6771 8.056C77.5491 8.152 77.4611 8.24 77.4131 8.32C77.3651 8.384 77.3411 8.472 77.3411 8.584C77.3411 9.032 77.7891 9.36 78.6851 9.568C79.5971 9.776 80.0771 9.888 80.1251 9.904C80.2211 9.936 80.4851 10.016 80.9171 10.144C81.3651 10.272 81.6851 10.392 81.8771 10.504Z" fill="white"/>
</svg>
