<svg width="133" height="18" viewBox="0 0 133 18" fill="none" xmlns="http://www.w3.org/2000/svg">
<path d="M0.264 3.008C0.264 2.32 0.768 1.976 1.776 1.976C2.208 1.976 3.032 1.992 4.248 2.024C5.592 2.088 6.608 2.12 7.296 2.12C7.856 2.12 8.536 2.088 9.336 2.024C9.88 1.992 10.224 1.976 10.368 1.976C11.248 2.008 11.992 2.168 12.6 2.456C12.776 2.536 12.92 2.632 13.032 2.744C13.144 2.856 13.2 3.04 13.2 3.296C13.2 3.648 13.088 3.952 12.864 4.208C12.64 4.448 12.368 4.568 12.048 4.568C11.696 4.568 11.184 4.52 10.512 4.424C9.92 4.312 9.4 4.256 8.952 4.256C8.52 4.256 8.192 4.264 7.968 4.28C7.92 4.808 7.896 6.072 7.896 8.072C7.896 10.456 7.968 12.872 8.112 15.32L8.16 16.016C8.16 16.672 7.784 17 7.032 17C6.44 17 6.04 16.864 5.832 16.592C5.624 16.304 5.52 15.872 5.52 15.296C5.52 14.16 5.488 12.744 5.424 11.048C5.36 9.64 5.328 8.64 5.328 8.048C5.328 7.648 5.376 6.424 5.472 4.376L2.664 4.4C1.768 4.4 1.144 4.32 0.792 4.16C0.44 3.984 0.264 3.6 0.264 3.008ZM23.2779 15.848C23.2779 16.2 23.0859 16.496 22.7019 16.736C22.3339 16.976 21.9899 17.096 21.6699 17.096C21.0619 17.096 20.5739 17.024 20.2059 16.88C19.8539 16.72 19.5259 16.432 19.2219 16.016C18.8059 16.384 18.2379 16.664 17.5179 16.856C16.7979 17.032 16.1339 17.12 15.5259 17.12C14.5339 17.12 13.7179 16.856 13.0779 16.328C12.4379 15.784 12.1179 14.992 12.1179 13.952C12.1179 13.504 12.2379 13.096 12.4779 12.728C12.7179 12.344 13.0459 12.008 13.4619 11.72C13.9259 11.416 14.4539 11.184 15.0459 11.024C15.6379 10.848 16.2539 10.76 16.8939 10.76C17.2299 10.76 17.6299 10.824 18.0939 10.952C18.5579 11.08 18.9179 11.216 19.1739 11.36V10.976C19.1739 10.112 18.9659 9.52 18.5499 9.2C18.1339 8.864 17.4619 8.696 16.5339 8.696C16.2619 8.696 15.9899 8.752 15.7179 8.864C15.4619 8.976 15.1659 9.128 14.8299 9.32C14.3819 9.56 13.9579 9.68 13.5579 9.68C13.4139 9.68 13.2779 9.584 13.1499 9.392C13.0219 9.184 12.9579 9 12.9579 8.84C12.9579 8.376 13.1739 7.976 13.6059 7.64C14.0539 7.304 14.5819 7.056 15.1899 6.896C15.7979 6.72 16.3419 6.632 16.8219 6.632C17.3019 6.632 17.8539 6.728 18.4779 6.92C19.1019 7.096 19.6139 7.344 20.0139 7.664C20.4939 8.08 20.8619 8.568 21.1179 9.128C21.3899 9.672 21.5259 10.272 21.5259 10.928C21.5259 11.136 21.5099 11.448 21.4779 11.864C21.4459 12.312 21.4299 12.696 21.4299 13.016C21.4299 13.16 21.4139 13.376 21.3819 13.664C21.3499 14.016 21.3339 14.296 21.3339 14.504C21.3339 14.696 21.4059 14.864 21.5499 15.008C21.6939 15.136 21.8619 15.2 22.0539 15.2L22.7259 15.176C22.9019 15.176 23.0379 15.24 23.1339 15.368C23.2299 15.496 23.2779 15.656 23.2779 15.848ZM15.5499 15.224C16.2379 15.224 16.8139 15.152 17.2779 15.008C17.7419 14.864 18.3019 14.6 18.9579 14.216C19.0219 13.944 19.0619 13.584 19.0779 13.136C18.1979 12.72 17.4699 12.512 16.8939 12.512C16.2379 12.512 15.6539 12.632 15.1419 12.872C14.6299 13.112 14.3739 13.536 14.3739 14.144C14.3739 14.448 14.5019 14.704 14.7579 14.912C15.0139 15.12 15.2779 15.224 15.5499 15.224ZM26.0976 1.592C26.6576 1.64 27.1456 1.792 27.5616 2.048C27.9776 2.288 28.1856 2.656 28.1856 3.152C28.1856 3.52 28.0096 3.816 27.6576 4.04C27.3216 4.248 26.9136 4.352 26.4336 4.352C25.9696 4.352 25.6496 4.232 25.4736 3.992C25.2976 3.752 25.2096 3.504 25.2096 3.248C25.2096 2.768 25.2576 2.368 25.3536 2.048C25.4656 1.728 25.7136 1.576 26.0976 1.592ZM28.0176 12.224V12.92C28.0176 13.544 28.0336 14.136 28.0656 14.696C28.1136 15.24 28.1696 15.792 28.2336 16.352C28.2336 16.544 28.1216 16.72 27.8976 16.88C27.6736 17.024 27.4656 17.096 27.2736 17.096C26.9696 17.096 26.6576 17.04 26.3376 16.928C26.0336 16.8 25.8496 16.648 25.7856 16.472C25.6896 15.96 25.6416 15.504 25.6416 15.104C25.6416 13.792 25.6016 12.32 25.5216 10.688C25.4576 9.248 25.4256 8.24 25.4256 7.664C25.4256 7.376 25.5696 7.128 25.8576 6.92C26.1456 6.712 26.4496 6.608 26.7696 6.608C27.2336 6.608 27.5536 6.712 27.7296 6.92C27.9216 7.128 28.0176 7.456 28.0176 7.904V12.224ZM33.7022 13.28C33.7022 13.888 33.7902 14.36 33.9662 14.696C34.1582 15.016 34.3982 15.176 34.6862 15.176C34.8462 15.176 34.9982 15.168 35.1422 15.152C35.2862 15.12 35.4302 15.104 35.5742 15.104C35.7342 15.104 35.8702 15.184 35.9822 15.344C36.1102 15.504 36.1742 15.68 36.1742 15.872C36.1742 16.256 35.9902 16.56 35.6222 16.784C35.2702 16.992 34.7902 17.096 34.1822 17.096C33.7502 17.096 33.3102 16.968 32.8622 16.712C32.4302 16.44 32.0702 16.024 31.7822 15.464C31.4942 14.888 31.3502 14.176 31.3502 13.328C31.3502 11.504 31.3822 9.96 31.4462 8.696C31.5262 7.192 31.5662 5.296 31.5662 3.008C31.5662 2.288 31.6062 1.784 31.6862 1.496C31.7822 1.272 31.9342 1.104 32.1422 0.991999C32.3662 0.863999 32.5982 0.8 32.8382 0.8C33.0782 0.8 33.2862 0.84 33.4622 0.92C33.6542 1 33.7822 1.128 33.8462 1.304C33.9102 1.496 33.9502 1.688 33.9662 1.88C33.9982 2.056 34.0142 2.312 34.0142 2.648C34.0142 3.304 33.9902 3.936 33.9422 4.544C33.9102 5.28 33.8942 5.816 33.8942 6.152C33.7662 8.968 33.7022 11.344 33.7022 13.28ZM48.8991 11.288C48.9951 10.936 49.0991 10.456 49.2111 9.848C49.3711 9.128 49.4991 8.584 49.5951 8.216C49.6911 7.848 49.8191 7.536 49.9791 7.28C50.1551 6.992 50.3071 6.8 50.4351 6.704C50.5791 6.608 50.7311 6.56 50.8911 6.56C51.7231 6.56 52.1391 6.88 52.1391 7.52C52.1391 7.84 52.0111 8.44 51.7551 9.32C50.9071 11.88 50.2991 13.864 49.9311 15.272C49.7711 15.864 49.5311 16.32 49.2111 16.64C48.8911 16.944 48.4591 17.096 47.9151 17.096C47.6431 17.096 47.3631 16.968 47.0751 16.712C46.8031 16.44 46.5791 16.112 46.4031 15.728L46.1391 15.08C45.6911 13.944 45.3551 13.072 45.1311 12.464C44.9231 11.84 44.7871 11.28 44.7231 10.784L44.5071 11.552C44.1231 12.928 43.7231 14.208 43.3071 15.392C43.0991 16 42.8431 16.44 42.5391 16.712C42.2351 16.968 41.8431 17.096 41.3631 17.096C41.0751 17.096 40.8191 17.032 40.5951 16.904C40.3871 16.776 40.1871 16.56 39.9951 16.256C39.7391 15.84 39.4911 15.28 39.2511 14.576C39.0271 13.872 38.6991 12.776 38.2671 11.288C38.0591 10.648 37.8671 9.976 37.6911 9.272C37.5151 8.552 37.4271 8.048 37.4271 7.76C37.4271 7.424 37.5151 7.16 37.6911 6.968C37.8671 6.776 38.1231 6.68 38.4591 6.68C38.8911 6.68 39.1951 6.768 39.3711 6.944C39.5471 7.104 39.7071 7.352 39.8511 7.688C39.9311 8.264 40.1071 9.08 40.3791 10.136L40.9071 12.392C40.9391 12.568 41.0351 12.936 41.1951 13.496L41.3871 14.192C41.7391 13.44 42.0351 12.72 42.2751 12.032C42.5151 11.344 42.7791 10.496 43.0671 9.488C43.0831 9.424 43.2431 8.872 43.5471 7.832C43.7551 7.496 43.9391 7.248 44.0991 7.088C44.2591 6.912 44.4191 6.824 44.5791 6.824C44.8991 6.824 45.1711 6.928 45.3951 7.136C45.6351 7.328 45.8111 7.568 45.9231 7.856C46.1151 8.48 46.2831 9.048 46.4271 9.56C46.4911 9.768 46.6351 10.272 46.8591 11.072C47.0991 11.856 47.3151 12.52 47.5071 13.064C47.6991 13.608 47.8591 13.992 47.9871 14.216L48.8991 11.288ZM55.323 1.592C55.883 1.64 56.363 1.792 56.763 2.048C57.179 2.288 57.387 2.656 57.387 3.152C57.387 3.52 57.219 3.816 56.883 4.04C56.547 4.248 56.131 4.352 55.635 4.352C55.171 4.352 54.851 4.232 54.675 3.992C54.499 3.752 54.411 3.504 54.411 3.248C54.411 2.784 54.467 2.392 54.579 2.072C54.691 1.736 54.939 1.576 55.323 1.592ZM54.843 11.504V10.808C54.843 10.008 54.803 9.28 54.723 8.624C54.659 7.952 54.619 7.536 54.603 7.376C54.619 7.2 54.739 7.032 54.963 6.872C55.187 6.712 55.387 6.632 55.563 6.632C55.867 6.632 56.171 6.696 56.475 6.824C56.795 6.936 56.995 7.08 57.075 7.256C57.155 7.848 57.195 8.304 57.195 8.624C57.195 9.328 57.227 10.48 57.291 12.08L57.315 13.016L57.363 13.928C57.379 14.184 57.395 14.488 57.411 14.84C57.427 15.192 57.435 15.592 57.435 16.04C57.435 16.344 57.283 16.6 56.979 16.808C56.691 17.016 56.387 17.12 56.067 17.12C55.603 17.12 55.275 17.016 55.083 16.808C54.907 16.6 54.819 16.272 54.819 15.824L54.843 11.504ZM71.1848 15.152C71.2648 15.184 71.3928 15.224 71.5688 15.272C71.7448 15.32 71.8728 15.368 71.9528 15.416C72.0328 15.464 72.0728 15.536 72.0728 15.632C72.0888 16.016 71.9448 16.336 71.6407 16.592C71.3528 16.832 71.0088 16.952 70.6088 16.952C69.9848 16.952 69.4968 16.784 69.1448 16.448C68.7928 16.112 68.5368 15.6 68.3768 14.912C68.3128 14.64 68.2808 14.264 68.2808 13.784C68.2808 13.512 68.2968 13.072 68.3288 12.464C68.3608 11.824 68.3768 11.312 68.3768 10.928C68.3768 10.24 68.3048 9.72 68.1608 9.368C68.0168 9 67.6728 8.816 67.1288 8.816C66.5688 8.816 66.0648 9.04 65.6168 9.488C65.1848 9.936 64.8168 10.608 64.5128 11.504C64.0968 12.752 63.8648 14.408 63.8168 16.472C63.8168 16.584 63.6968 16.72 63.4568 16.88C63.2328 17.024 62.9608 17.096 62.6408 17.096C62.0488 17.096 61.6808 16.784 61.5368 16.16L61.5128 15.752C61.5128 15.608 61.5288 15.44 61.5608 15.248C61.7528 14.128 61.8488 13.152 61.8488 12.32C61.8488 11.952 61.8408 11.664 61.8248 11.456L61.8008 10.328C61.8008 9.944 61.7048 9.576 61.5128 9.224C61.3208 8.856 61.0968 8.672 60.8408 8.672C60.7608 8.672 60.6488 8.704 60.5048 8.768C60.3608 8.816 60.2408 8.84 60.1448 8.84C59.9848 8.84 59.8088 8.76 59.6168 8.6C59.4408 8.44 59.3528 8.272 59.3528 8.096C59.3528 7.76 59.4648 7.488 59.6888 7.28C59.9288 7.088 60.1608 6.936 60.3848 6.824C60.6248 6.712 60.8968 6.656 61.2008 6.656C61.4568 6.656 61.6648 6.68 61.8248 6.728C61.9848 6.776 62.2008 6.88 62.4728 7.04C62.6328 7.12 62.8168 7.344 63.0248 7.712C63.2328 8.08 63.3928 8.6 63.5048 9.272C63.8248 8.68 64.3608 8.056 65.1128 7.4C65.6728 6.888 66.4808 6.632 67.5368 6.632C68.4968 6.632 69.2568 6.984 69.8168 7.688C70.3768 8.376 70.6568 9.328 70.6568 10.544C70.6568 10.784 70.6408 11.176 70.6088 11.72C70.5608 12.152 70.5368 12.608 70.5368 13.088C70.5368 14.208 70.7528 14.896 71.1848 15.152ZM83.4339 1.976C83.4339 2.136 83.3939 2.576 83.3139 3.296C83.1379 5.056 83.0499 6.84 83.0499 8.648C83.0499 10.232 83.0739 11.44 83.1219 12.272C83.1699 13.104 83.2899 13.744 83.4819 14.192C83.6739 14.624 83.9699 14.84 84.3699 14.84C85.1379 14.84 85.5219 15.096 85.5219 15.608C85.5219 15.944 85.3539 16.232 85.0179 16.472C84.6819 16.696 84.3139 16.808 83.9139 16.808C83.4339 16.808 82.9859 16.696 82.5699 16.472C82.1539 16.248 81.8259 15.904 81.5859 15.44C81.2499 15.936 80.7619 16.336 80.1219 16.64C79.4979 16.928 78.8899 17.072 78.2979 17.072C77.3859 17.072 76.5779 16.88 75.8739 16.496C75.1699 16.112 74.6259 15.592 74.2419 14.936C73.8579 14.264 73.6659 13.528 73.6659 12.728C73.6659 11.96 73.7539 11.224 73.9299 10.52C74.1219 9.8 74.3779 9.208 74.6979 8.744C75.1299 8.136 75.7059 7.656 76.4259 7.304C77.1619 6.936 77.8819 6.752 78.5859 6.752C79.0179 6.752 79.4259 6.84 79.8099 7.016C80.1939 7.176 80.5299 7.376 80.8179 7.616C80.8179 6.544 80.8099 5.872 80.7939 5.6V5.096C80.7939 3.608 80.8899 2.52 81.0819 1.832C81.2579 1.16 81.6819 0.823999 82.3539 0.823999C82.7219 0.823999 82.9939 0.903999 83.1699 1.064C83.3459 1.224 83.4339 1.528 83.4339 1.976ZM76.0419 12.68C76.0419 13.416 76.2499 14.008 76.6659 14.456C77.0979 14.904 77.6099 15.128 78.2019 15.128C79.0499 15.128 79.6739 14.864 80.0739 14.336C80.4899 13.808 80.6979 13.128 80.6979 12.296L80.6739 9.92C80.0499 9.232 79.4019 8.888 78.7299 8.888C78.2659 8.888 77.8259 9.008 77.4099 9.248C77.0099 9.472 76.6899 9.816 76.4499 10.28C76.1779 10.808 76.0419 11.608 76.0419 12.68ZM104.659 3.68C104.899 3.968 105.067 4.2 105.163 4.376C105.259 4.552 105.307 4.72 105.307 4.88C105.307 5.072 105.179 5.296 104.923 5.552C104.683 5.808 104.443 5.936 104.203 5.936C103.883 5.936 103.627 5.888 103.435 5.792C103.243 5.696 103.083 5.544 102.955 5.336C102.699 4.952 102.387 4.624 102.019 4.352C101.651 4.064 101.075 3.92 100.291 3.92C99.6188 3.92 98.8508 4.072 97.9868 4.376C97.1388 4.68 96.5308 5.056 96.1628 5.504C95.8428 5.904 95.5628 6.512 95.3228 7.328C95.0988 8.144 94.9868 8.936 94.9868 9.704C94.9868 10.632 95.1868 11.488 95.5868 12.272C96.0028 13.04 96.5948 13.656 97.3628 14.12C98.1468 14.584 99.0828 14.816 100.171 14.816C100.763 14.816 101.371 14.704 101.995 14.48C102.635 14.24 103.187 13.856 103.651 13.328H103.627C103.915 13.024 104.275 12.872 104.707 12.872C104.963 12.872 105.203 12.984 105.427 13.208C105.667 13.432 105.787 13.656 105.787 13.88C105.787 14.12 105.747 14.336 105.667 14.528C105.603 14.704 105.475 14.904 105.283 15.128C104.627 15.864 103.851 16.368 102.955 16.64C102.059 16.912 100.987 17.048 99.7388 17.048C98.6348 17.048 97.5148 16.784 96.3788 16.256C95.2588 15.728 94.3948 15.088 93.7868 14.336C93.4668 13.872 93.1548 13.208 92.8508 12.344C92.5628 11.464 92.4188 10.752 92.4188 10.208C92.4188 8.816 92.6268 7.496 93.0428 6.248C93.4748 4.984 94.1148 3.976 94.9628 3.224C95.5228 2.712 96.3308 2.328 97.3867 2.072C98.4428 1.816 99.4108 1.688 100.291 1.688C101.363 1.688 102.203 1.84 102.811 2.144C103.435 2.432 104.051 2.944 104.659 3.68ZM119.145 12.872C119.145 13.624 118.985 14.232 118.665 14.696C118.345 15.16 117.793 15.616 117.009 16.064C116.481 16.384 115.873 16.632 115.185 16.808C114.497 16.968 113.801 17.048 113.097 17.048C112.665 17.048 112.161 16.968 111.585 16.808C111.025 16.632 110.569 16.464 110.217 16.304L109.809 15.944C109.089 15.352 108.585 14.88 108.297 14.528C108.025 14.16 107.889 13.712 107.889 13.184C107.889 12.768 107.985 12.456 108.177 12.248C108.369 12.04 108.681 11.936 109.113 11.936C109.337 11.936 109.545 12.008 109.737 12.152C109.929 12.296 110.097 12.496 110.241 12.752C110.641 13.456 111.113 13.976 111.657 14.312C112.217 14.632 112.873 14.792 113.625 14.792C114.329 14.792 115.041 14.576 115.761 14.144C116.353 13.776 116.649 13.416 116.649 13.064C116.649 12.44 116.369 11.92 115.809 11.504C115.265 11.088 114.481 10.712 113.457 10.376C112.833 10.152 111.897 9.736 110.649 9.128C109.801 8.712 109.169 8.2 108.753 7.592C108.337 6.984 108.129 6.344 108.129 5.672C108.129 5.064 108.337 4.472 108.753 3.896C109.185 3.304 109.705 2.864 110.313 2.576C110.633 2.416 111.145 2.248 111.849 2.072C112.553 1.88 113.081 1.784 113.433 1.784C114.089 1.784 114.657 1.864 115.137 2.024C115.617 2.168 116.089 2.376 116.553 2.648C117.257 3.048 117.777 3.408 118.113 3.728C118.449 4.048 118.617 4.448 118.617 4.928C118.617 5.216 118.505 5.472 118.281 5.696C118.073 5.92 117.705 6.032 117.177 6.032C117.049 6.032 116.921 5.976 116.793 5.864C116.665 5.752 116.505 5.584 116.313 5.36C116.057 5.024 115.809 4.8 115.569 4.688C115.505 4.672 115.241 4.568 114.777 4.376C114.329 4.184 113.769 4.088 113.097 4.088C112.457 4.088 111.889 4.24 111.393 4.544C110.897 4.832 110.649 5.256 110.649 5.816C110.649 6.376 111.153 6.832 112.161 7.184C113.233 7.6 114.121 7.96 114.825 8.264C115.545 8.568 116.241 8.928 116.913 9.344C117.681 9.808 118.241 10.296 118.593 10.808C118.961 11.32 119.145 12.008 119.145 12.872ZM132.621 12.656C132.621 13.408 132.445 14.056 132.093 14.6C131.757 15.128 131.197 15.616 130.413 16.064C129.885 16.384 129.269 16.624 128.565 16.784C127.861 16.944 127.149 17.024 126.429 17.024C125.693 17.024 124.781 16.784 123.693 16.304C122.909 15.92 122.285 15.464 121.821 14.936C121.373 14.408 121.149 13.832 121.149 13.208C121.149 12.776 121.245 12.464 121.437 12.272C121.629 12.064 121.941 11.96 122.373 11.96C122.597 11.96 122.829 12.056 123.069 12.248C123.309 12.424 123.453 12.6 123.501 12.776C123.725 13.432 124.117 13.936 124.677 14.288C125.237 14.624 125.933 14.792 126.765 14.792C127.725 14.792 128.525 14.616 129.165 14.264C129.821 13.912 130.149 13.44 130.149 12.848C130.149 12.272 129.797 11.76 129.093 11.312C128.389 10.864 127.669 10.552 126.933 10.376C125.877 10.088 124.941 9.744 124.125 9.344C123.277 8.928 122.645 8.416 122.229 7.808C121.813 7.2 121.605 6.56 121.605 5.888C121.605 5.264 121.821 4.632 122.253 3.992C122.685 3.336 123.197 2.864 123.789 2.576C124.109 2.416 124.653 2.248 125.421 2.072C126.205 1.88 126.773 1.784 127.125 1.784C127.573 1.784 128.045 1.84 128.541 1.952C129.037 2.064 129.461 2.224 129.813 2.432C130.517 2.832 131.037 3.192 131.373 3.512C131.709 3.832 131.877 4.232 131.877 4.712C131.877 5 131.765 5.256 131.541 5.48C131.333 5.704 130.965 5.816 130.437 5.816C130.309 5.816 130.181 5.76 130.053 5.648C129.925 5.536 129.765 5.368 129.573 5.144C129.317 4.808 129.069 4.584 128.829 4.472C128.573 4.376 128.253 4.288 127.869 4.208C127.485 4.112 127.125 4.064 126.789 4.064C126.405 4.064 126.005 4.144 125.589 4.304C125.173 4.464 124.821 4.696 124.533 5C124.261 5.288 124.125 5.624 124.125 6.008C124.125 6.328 124.269 6.608 124.557 6.848C124.861 7.072 125.221 7.256 125.637 7.4C126.117 7.592 126.637 7.76 127.197 7.904C127.933 8.128 128.533 8.336 128.997 8.528C129.477 8.704 129.941 8.928 130.389 9.2C131.173 9.664 131.741 10.144 132.093 10.64C132.445 11.12 132.621 11.792 132.621 12.656Z" fill="white"/>
</svg>
