<svg width="104" height="22" viewBox="0 0 104 22" fill="none" xmlns="http://www.w3.org/2000/svg">
<path d="M0.264 2.008C0.264 1.32 0.768 0.975999 1.776 0.975999C2.208 0.975999 3.032 0.991999 4.248 1.024C5.592 1.088 6.608 1.12 7.296 1.12C7.856 1.12 8.536 1.088 9.336 1.024C9.88 0.991999 10.224 0.975999 10.368 0.975999C11.248 1.008 11.992 1.168 12.6 1.456C12.776 1.536 12.92 1.632 13.032 1.744C13.144 1.856 13.2 2.04 13.2 2.296C13.2 2.648 13.088 2.952 12.864 3.208C12.64 3.448 12.368 3.568 12.048 3.568C11.696 3.568 11.184 3.52 10.512 3.424C9.92 3.312 9.4 3.256 8.952 3.256C8.52 3.256 8.192 3.264 7.968 3.28C7.92 3.808 7.896 5.072 7.896 7.072C7.896 9.456 7.968 11.872 8.112 14.32L8.16 15.016C8.16 15.672 7.784 16 7.032 16C6.44 16 6.04 15.864 5.832 15.592C5.624 15.304 5.52 14.872 5.52 14.296C5.52 13.16 5.488 11.744 5.424 10.048C5.36 8.64 5.328 7.64 5.328 7.048C5.328 6.648 5.376 5.424 5.472 3.376L2.664 3.4C1.768 3.4 1.144 3.32 0.792 3.16C0.44 2.984 0.264 2.6 0.264 2.008ZM14.9271 20.896C14.3191 20.896 13.8071 20.792 13.3911 20.584C12.9911 20.392 12.6871 20.152 12.4791 19.864C12.2871 19.592 12.1911 19.352 12.1911 19.144C12.1911 18.872 12.2871 18.656 12.4791 18.496C12.6711 18.352 12.9031 18.28 13.1751 18.28C13.3351 18.28 13.4871 18.328 13.6311 18.424C13.7751 18.52 13.8551 18.576 13.8711 18.592C13.9831 18.672 14.0951 18.736 14.2071 18.784C14.3191 18.848 14.4391 18.88 14.5671 18.88C14.9191 18.88 15.2071 18.648 15.4311 18.184C15.6551 17.72 15.8791 16.968 16.1031 15.928C15.3831 14.872 14.7831 13.816 14.3031 12.76L13.7511 11.488C13.6711 11.296 13.4471 10.8 13.0791 10C12.7271 9.184 12.3751 8.464 12.0231 7.84C11.7991 7.392 11.6871 7.088 11.6871 6.928C11.6871 6.528 11.8231 6.232 12.0951 6.04C12.3831 5.848 12.7111 5.752 13.0791 5.752C13.3351 5.752 13.5271 5.808 13.6551 5.92C13.7991 6.016 13.9591 6.2 14.1351 6.472C14.5991 7.24 15.1031 8.392 15.6471 9.928C15.9671 10.808 16.2231 11.48 16.4151 11.944C16.6071 12.392 16.8391 12.848 17.1111 13.312C17.3831 12.688 17.7271 11.624 18.1431 10.12C18.3991 9.256 18.6071 8.568 18.7671 8.056C18.9431 7.528 19.1351 7.048 19.3431 6.616C19.4871 6.328 19.6631 6.096 19.8711 5.92C20.0951 5.744 20.3431 5.656 20.6151 5.656C20.8871 5.656 21.1751 5.76 21.4791 5.968C21.7991 6.16 21.9591 6.392 21.9591 6.664C21.9591 6.824 21.9031 7.016 21.7911 7.24C21.1671 8.68 20.6151 10.04 20.1351 11.32C19.6711 12.584 19.2231 13.976 18.7911 15.496C18.5351 16.344 18.2631 17.152 17.9751 17.92C17.7031 18.688 17.5111 19.16 17.3991 19.336C17.0791 19.784 16.7191 20.152 16.3191 20.44C15.9191 20.744 15.4551 20.896 14.9271 20.896ZM23.2971 7.816C23.1371 7.592 23.0251 7.4 22.9611 7.24C22.8971 7.08 22.8651 6.88 22.8651 6.64C22.8651 6.384 22.9691 6.168 23.1771 5.992C23.4011 5.816 23.6811 5.728 24.0171 5.728C24.3531 5.728 24.6891 5.856 25.0251 6.112C25.3611 6.352 25.6331 6.664 25.8411 7.048C26.1771 6.568 26.6331 6.224 27.2091 6.016C27.7851 5.808 28.4091 5.704 29.0811 5.704C29.8171 5.704 30.4971 5.928 31.1211 6.376C31.7611 6.824 32.2651 7.4 32.6331 8.104C33.0011 8.808 33.1851 9.512 33.1851 10.216C33.1851 10.904 33.1131 11.52 32.9691 12.064C32.8251 12.592 32.5691 13.128 32.2011 13.672C31.7851 14.248 31.2251 14.72 30.5211 15.088C29.8331 15.456 29.0091 15.64 28.0491 15.64C27.7931 15.64 27.4811 15.576 27.1131 15.448C26.7451 15.304 26.4411 15.152 26.2011 14.992C26.0891 16.08 26.0331 17.024 26.0331 17.824C26.0331 18.304 26.0571 18.76 26.1051 19.192C26.1371 19.704 26.1531 20.072 26.1531 20.296C26.1531 20.648 26.0331 20.904 25.7931 21.064C25.5531 21.24 25.2891 21.328 25.0011 21.328C24.4251 21.328 24.0411 21.168 23.8491 20.848C23.6731 20.544 23.5851 20.104 23.5851 19.528C23.6491 18.152 23.7291 16.88 23.8251 15.712C23.9371 14.032 23.9931 11.968 23.9931 9.52C23.9931 9.328 23.9131 9.048 23.7531 8.68C23.6091 8.312 23.4571 8.024 23.2971 7.816ZM26.2971 12.616C26.3771 12.92 26.6011 13.176 26.9691 13.384C27.3531 13.576 27.6971 13.672 28.0011 13.672C28.9131 13.672 29.5931 13.424 30.0411 12.928C30.3771 12.576 30.5931 12.232 30.6891 11.896C30.8011 11.56 30.8571 11.024 30.8571 10.288C30.8571 9.712 30.7451 9.232 30.5211 8.848C30.2971 8.448 30.0251 8.16 29.7051 7.984C29.3851 7.792 29.0811 7.696 28.7931 7.696C28.1371 7.696 27.6011 7.896 27.1851 8.296C26.7851 8.68 26.5291 9.208 26.4171 9.88C26.3371 10.408 26.2971 11.32 26.2971 12.616ZM35.205 10.912C35.205 10.304 35.317 9.696 35.541 9.088C35.765 8.464 36.061 7.896 36.429 7.384C36.797 6.872 37.381 6.456 38.181 6.136C38.981 5.8 39.693 5.632 40.317 5.632C40.957 5.632 41.605 5.72 42.261 5.896C42.933 6.072 43.397 6.344 43.653 6.712C44.245 7.544 44.541 8.36 44.541 9.16C44.541 9.592 44.445 9.96 44.253 10.264C44.077 10.568 43.821 10.896 43.485 11.248C43.213 11.536 42.781 11.728 42.189 11.824C41.613 11.92 41.037 11.968 40.461 11.968C40.093 11.968 39.645 11.936 39.117 11.872C38.589 11.792 38.077 11.696 37.581 11.584C37.613 11.904 37.693 12.216 37.821 12.52C37.949 12.824 38.101 13.056 38.277 13.216C38.597 13.52 38.925 13.712 39.261 13.792C39.613 13.872 40.061 13.912 40.605 13.912C41.181 13.912 41.717 13.816 42.213 13.624C42.613 13.48 42.941 13.408 43.197 13.408C43.501 13.408 43.733 13.504 43.893 13.696C44.053 13.872 44.133 14.104 44.133 14.392C44.133 14.792 43.901 15.12 43.437 15.376C42.973 15.632 42.437 15.824 41.829 15.952C41.237 16.064 40.757 16.12 40.389 16.12C39.637 16.12 38.909 15.984 38.205 15.712C37.501 15.44 36.917 15.056 36.453 14.56C36.069 14.112 35.765 13.576 35.541 12.952C35.317 12.312 35.205 11.632 35.205 10.912ZM40.437 7.672C40.085 7.672 39.733 7.744 39.381 7.888C39.029 8.016 38.741 8.2 38.517 8.44C38.229 8.744 38.029 8.992 37.917 9.184C37.821 9.36 37.757 9.608 37.725 9.928C38.125 10.056 38.957 10.12 40.221 10.12C40.909 10.12 41.437 10.016 41.805 9.808C42.189 9.6 42.381 9.328 42.381 8.992C42.381 8.656 42.173 8.352 41.757 8.08C41.341 7.808 40.901 7.672 40.437 7.672ZM53.6505 10.504C54.2905 10.872 54.7385 11.24 54.9945 11.608C55.2505 11.96 55.3785 12.424 55.3785 13C55.3785 13.576 55.2105 14.088 54.8745 14.536C54.5385 14.968 54.1065 15.304 53.5785 15.544C53.1945 15.72 52.7145 15.856 52.1385 15.952C51.5785 16.048 51.1385 16.096 50.8185 16.096C50.2585 16.096 49.6505 15.992 48.9945 15.784C48.3385 15.576 47.7785 15.28 47.3145 14.896C46.8665 14.512 46.6425 14.064 46.6425 13.552C46.6425 13.232 46.7465 12.984 46.9545 12.808C47.1625 12.616 47.4345 12.52 47.7705 12.52C48.0425 12.52 48.3305 12.712 48.6345 13.096C48.9385 13.432 49.2905 13.688 49.6905 13.864C50.1065 14.04 50.5145 14.128 50.9145 14.128C52.4345 14.128 53.1945 13.784 53.1945 13.096C53.1945 12.952 53.1465 12.816 53.0505 12.688C52.9545 12.544 52.8665 12.448 52.7865 12.4C52.6425 12.288 52.4425 12.192 52.1865 12.112C51.9305 12.032 51.6745 11.968 51.4185 11.92C51.1625 11.856 50.9705 11.808 50.8425 11.776C50.7145 11.744 50.4425 11.688 50.0265 11.608C49.6265 11.528 49.2425 11.392 48.8745 11.2C48.2665 10.912 47.7705 10.56 47.3865 10.144C47.0185 9.728 46.8345 9.192 46.8345 8.536C46.8345 8.168 46.9225 7.8 47.0985 7.432C47.2905 7.048 47.5465 6.76 47.8665 6.568C48.3465 6.264 48.8745 6.032 49.4505 5.872C50.0265 5.712 50.5625 5.632 51.0585 5.632C51.4585 5.632 51.9065 5.672 52.4025 5.752C52.9145 5.832 53.2825 5.944 53.5065 6.088C53.9225 6.312 54.2265 6.544 54.4185 6.784C54.6105 7.024 54.7065 7.328 54.7065 7.696C54.7065 7.872 54.6665 8.048 54.5865 8.224C54.5065 8.384 54.4105 8.496 54.2985 8.56C54.0425 8.656 53.8185 8.704 53.6265 8.704C53.4825 8.704 53.3625 8.68 53.2665 8.632C53.1705 8.568 53.0825 8.504 53.0025 8.44C52.9385 8.376 52.8985 8.336 52.8825 8.32C52.6745 8.096 52.4425 7.92 52.1865 7.792C51.9305 7.664 51.5545 7.6 51.0585 7.6C50.7385 7.6 50.4265 7.648 50.1225 7.744C49.8345 7.824 49.6105 7.928 49.4505 8.056C49.3225 8.152 49.2345 8.24 49.1865 8.32C49.1385 8.384 49.1145 8.472 49.1145 8.584C49.1145 9.032 49.5625 9.36 50.4585 9.568C51.3705 9.776 51.8505 9.888 51.8985 9.904C51.9945 9.936 52.2585 10.016 52.6905 10.144C53.1385 10.272 53.4585 10.392 53.6505 10.504ZM66.1592 7.984C66.1592 8.688 65.7992 9.04 65.0792 9.04C64.8392 9.04 64.6392 8.984 64.4792 8.872C64.3192 8.76 64.1432 8.592 63.9512 8.368C63.4712 7.84 63.0552 7.576 62.7032 7.576C62.2392 7.576 61.7832 7.712 61.3352 7.984C60.9032 8.256 60.5512 8.64 60.2792 9.136C60.0072 9.632 59.8712 10.184 59.8712 10.792C59.8712 11.464 59.9992 12.024 60.2552 12.472C60.5272 12.92 60.9432 13.304 61.5032 13.624C61.7112 13.736 61.9512 13.824 62.2232 13.888C62.5112 13.952 62.7592 13.984 62.9672 13.984C63.4312 13.984 64.0152 13.8 64.7192 13.432C64.9752 13.304 65.1912 13.208 65.3672 13.144C65.5432 13.08 65.7272 13.048 65.9192 13.048C66.0952 13.048 66.2952 13.128 66.5192 13.288C66.7432 13.448 66.8552 13.648 66.8552 13.888C66.8552 14.368 66.6312 14.776 66.1832 15.112C65.7352 15.432 65.1832 15.68 64.5272 15.856C63.8872 16.016 63.2712 16.096 62.6792 16.096C61.7352 16.096 60.8552 15.88 60.0392 15.448C59.2392 15.016 58.5992 14.424 58.1192 13.672C57.6392 12.904 57.3992 12.04 57.3992 11.08C57.3992 10.056 57.6312 9.12 58.0952 8.272C58.5592 7.424 59.1832 6.76 59.9672 6.28C60.7512 5.8 61.6072 5.56 62.5352 5.56C63.0632 5.56 63.6072 5.656 64.1672 5.848C64.7272 6.04 65.1992 6.32 65.5832 6.688C65.9672 7.056 66.1592 7.488 66.1592 7.984ZM68.9852 7.576C68.5692 7.288 68.3612 6.984 68.3612 6.664C68.3612 6.44 68.4572 6.232 68.6492 6.04C68.8412 5.848 69.1292 5.752 69.5132 5.752C69.9612 5.752 70.3612 5.872 70.7132 6.112C71.0812 6.336 71.3372 6.664 71.4812 7.096C71.8492 6.664 72.2652 6.32 72.7292 6.064C73.2092 5.808 73.6972 5.68 74.1932 5.68C74.7852 5.68 75.3212 5.84 75.8012 6.16C76.2812 6.48 76.5212 6.912 76.5212 7.456C76.5212 7.76 76.3852 8.072 76.1132 8.392C75.8572 8.712 75.5932 8.872 75.3212 8.872C75.1772 8.872 75.0492 8.84 74.9372 8.776C74.8412 8.696 74.7212 8.584 74.5772 8.44C74.4172 8.28 74.2812 8.168 74.1692 8.104C74.0572 8.024 73.9292 7.984 73.7852 7.984C73.5292 7.984 73.2892 8.024 73.0652 8.104C72.8412 8.184 72.6892 8.28 72.6092 8.392C72.3532 8.792 72.1612 9.152 72.0332 9.472C71.9212 9.792 71.8652 10.136 71.8652 10.504C71.8652 10.776 71.8572 10.992 71.8412 11.152L71.8172 12.52C71.8172 12.728 71.8252 12.96 71.8412 13.216C71.8572 13.472 71.8732 13.664 71.8892 13.792C71.9372 14.224 71.9612 14.64 71.9612 15.04C71.9612 15.312 71.8572 15.552 71.6492 15.76C71.4412 15.968 71.1852 16.072 70.8812 16.072C70.4012 16.072 70.0492 15.984 69.8252 15.808C69.6012 15.616 69.4892 15.272 69.4892 14.776L69.4652 13.24C69.4492 12.936 69.4412 12.504 69.4412 11.944L69.4652 10.36C69.4972 9.592 69.5132 8.968 69.5132 8.488C69.5132 8.312 69.4732 8.152 69.3932 8.008C69.3292 7.864 69.1932 7.72 68.9852 7.576ZM79.1601 0.592C79.7201 0.639999 80.2081 0.791999 80.6241 1.048C81.0401 1.288 81.2481 1.656 81.2481 2.152C81.2481 2.52 81.0721 2.816 80.7201 3.04C80.3841 3.248 79.9761 3.352 79.4961 3.352C79.0321 3.352 78.7121 3.232 78.5361 2.992C78.3601 2.752 78.2721 2.504 78.2721 2.248C78.2721 1.768 78.3201 1.368 78.4161 1.048C78.5281 0.728 78.7761 0.576 79.1601 0.592ZM81.0801 11.224V11.92C81.0801 12.544 81.0961 13.136 81.1281 13.696C81.1761 14.24 81.2321 14.792 81.2961 15.352C81.2961 15.544 81.1841 15.72 80.9601 15.88C80.7361 16.024 80.5281 16.096 80.3361 16.096C80.0321 16.096 79.7201 16.04 79.4001 15.928C79.0961 15.8 78.9121 15.648 78.8481 15.472C78.7521 14.96 78.7041 14.504 78.7041 14.104C78.7041 12.792 78.6641 11.32 78.5841 9.688C78.5201 8.248 78.4881 7.24 78.4881 6.664C78.4881 6.376 78.6321 6.128 78.9201 5.92C79.2081 5.712 79.5121 5.608 79.8321 5.608C80.2961 5.608 80.6161 5.712 80.7921 5.92C80.9841 6.128 81.0801 6.456 81.0801 6.904V11.224ZM84.6287 7.648C84.4847 7.648 84.3487 7.664 84.2207 7.696C84.0927 7.712 83.9647 7.72 83.8367 7.72C83.6607 7.72 83.4927 7.64 83.3327 7.48C83.1887 7.32 83.1167 7.176 83.1167 7.048C83.1167 6.632 83.3247 6.312 83.7407 6.088C84.1567 5.848 84.5807 5.728 85.0127 5.728C85.3807 5.728 85.7567 5.856 86.1407 6.112C86.5407 6.352 86.8367 6.664 87.0287 7.048C87.4447 6.552 87.9567 6.192 88.5647 5.968C89.1727 5.744 89.8047 5.632 90.4607 5.632C91.1967 5.632 91.8767 5.864 92.5007 6.328C93.1407 6.792 93.6447 7.384 94.0127 8.104C94.3807 8.808 94.5647 9.512 94.5647 10.216C94.5647 10.904 94.4927 11.52 94.3487 12.064C94.2047 12.592 93.9487 13.128 93.5807 13.672C93.1647 14.248 92.6047 14.72 91.9007 15.088C91.2127 15.456 90.3887 15.64 89.4287 15.64C89.1727 15.64 88.8607 15.576 88.4927 15.448C88.1247 15.304 87.8207 15.152 87.5807 14.992C87.4687 16.08 87.4127 17.024 87.4127 17.824C87.4127 18.304 87.4367 18.76 87.4847 19.192C87.5167 19.704 87.5327 20.072 87.5327 20.296C87.5327 20.648 87.4127 20.904 87.1727 21.064C86.9327 21.24 86.6687 21.328 86.3807 21.328C85.8047 21.328 85.4207 21.168 85.2287 20.848C85.0527 20.544 84.9647 20.104 84.9647 19.528C85.0287 18.152 85.1087 16.88 85.2047 15.712C85.3007 14.272 85.3487 12.048 85.3487 9.04C85.3487 8.752 85.2927 8.448 85.1807 8.128C85.0687 7.808 84.8847 7.648 84.6287 7.648ZM87.6767 12.616C87.7567 12.92 87.9807 13.176 88.3487 13.384C88.7327 13.576 89.0767 13.672 89.3807 13.672C90.2927 13.672 90.9727 13.424 91.4207 12.928C91.7567 12.576 91.9727 12.232 92.0687 11.896C92.1807 11.56 92.2367 11.024 92.2367 10.288C92.2367 9.712 92.1247 9.232 91.9007 8.848C91.6767 8.448 91.4047 8.16 91.0847 7.984C90.7647 7.792 90.4607 7.696 90.1727 7.696C89.5167 7.696 88.9807 7.896 88.5647 8.296C88.1647 8.68 87.9087 9.208 87.7967 9.88C87.7167 10.408 87.6767 11.32 87.6767 12.616ZM96.7798 7.696C96.5558 7.664 96.3718 7.568 96.2278 7.408C96.0998 7.248 96.0358 7.056 96.0358 6.832C96.0358 6.72 96.0598 6.6 96.1078 6.472C96.1718 6.344 96.2598 6.232 96.3718 6.136C96.5798 5.928 97.1398 5.824 98.0518 5.824C98.1798 5.2 98.2438 4.568 98.2438 3.928C98.2438 3.688 98.2358 3.48 98.2198 3.304C98.2038 3.128 98.1958 2.992 98.1958 2.896C98.1958 2.544 98.3238 2.28 98.5798 2.104C98.8518 1.928 99.1558 1.84 99.4918 1.84C99.9078 1.84 100.188 1.944 100.332 2.152C100.492 2.36 100.572 2.744 100.572 3.304C100.572 4.136 100.5 4.952 100.356 5.752C100.612 5.752 100.964 5.736 101.412 5.704C102.02 5.672 102.46 5.656 102.732 5.656C103.004 5.656 103.236 5.728 103.428 5.872C103.636 6 103.74 6.184 103.74 6.424C103.74 7.048 103.46 7.416 102.9 7.528C102.308 7.672 101.388 7.76 100.14 7.792C100.092 8.416 100.068 9.096 100.068 9.832C100.068 10.984 100.14 11.928 100.284 12.664C100.38 13.176 100.54 13.552 100.764 13.792C101.004 14.016 101.356 14.128 101.82 14.128C102.092 14.128 102.372 14.056 102.66 13.912C102.852 13.8 103.028 13.744 103.188 13.744C103.412 13.744 103.572 13.816 103.668 13.96C103.78 14.104 103.836 14.296 103.836 14.536C103.836 14.984 103.596 15.36 103.116 15.664C102.636 15.952 102.02 16.096 101.268 16.096C100.804 16.096 100.332 15.984 99.8518 15.76C99.3878 15.536 98.9958 15.256 98.6758 14.92C98.6278 14.872 98.5398 14.688 98.4118 14.368C98.2838 14.048 98.1718 13.704 98.0758 13.336C97.9158 12.584 97.8358 11.528 97.8358 10.168C97.8358 9.576 97.8678 8.784 97.9318 7.792L96.7798 7.696Z" fill="white"/>
</svg>
