<svg width="120" height="18" viewBox="0 0 120 18" fill="none" xmlns="http://www.w3.org/2000/svg">
<path d="M3.072 2.48C3.664 4.24 4.336 6.176 5.088 8.288C5.84 10.384 6.528 12.2 7.152 13.736C7.616 12.248 8.256 10.464 9.072 8.384C9.888 6.288 10.648 4.4 11.352 2.72C11.56 2.224 11.912 1.976 12.408 1.976C12.872 1.976 13.224 2.072 13.464 2.264C13.704 2.44 13.824 2.752 13.824 3.2C13.824 3.376 13.8 3.528 13.752 3.656C13.704 3.784 13.632 3.952 13.536 4.16C13.04 5.136 12.544 6.264 12.048 7.544C11.552 8.808 10.944 10.416 10.224 12.368C10.256 12.288 10.032 12.888 9.552 14.168L8.76 16.232C8.664 16.488 8.504 16.688 8.28 16.832C8.072 16.96 7.832 17.024 7.56 17.024C7.288 17.024 6.984 16.96 6.648 16.832C6.328 16.688 6.096 16.544 5.952 16.4C5.408 15.36 4.712 13.856 3.864 11.888C3.032 9.92 2.312 8.104 1.704 6.44L1.344 5.456C1.104 4.784 0.928 4.272 0.816 3.92C0.704 3.552 0.648 3.256 0.648 3.032C0.648 2.712 0.824 2.456 1.176 2.264C1.544 2.072 1.896 1.976 2.232 1.976C2.408 1.976 2.576 2.016 2.736 2.096C2.896 2.176 3.008 2.304 3.072 2.48ZM16.6288 1.592C17.1888 1.64 17.6768 1.792 18.0928 2.048C18.5088 2.288 18.7168 2.656 18.7168 3.152C18.7168 3.52 18.5408 3.816 18.1888 4.04C17.8528 4.248 17.4448 4.352 16.9648 4.352C16.5008 4.352 16.1808 4.232 16.0048 3.992C15.8288 3.752 15.7408 3.504 15.7408 3.248C15.7408 2.768 15.7888 2.368 15.8848 2.048C15.9968 1.728 16.2448 1.576 16.6288 1.592ZM18.5488 12.224V12.92C18.5488 13.544 18.5648 14.136 18.5968 14.696C18.6448 15.24 18.7008 15.792 18.7648 16.352C18.7488 16.512 18.6288 16.68 18.4048 16.856C18.1808 17.016 17.9808 17.096 17.8048 17.096C17.5008 17.096 17.1888 17.04 16.8688 16.928C16.5648 16.8 16.3808 16.648 16.3168 16.472C16.2208 15.96 16.1728 15.504 16.1728 15.104C16.1728 13.792 16.1328 12.32 16.0528 10.688C15.9888 9.248 15.9568 8.24 15.9568 7.664C15.9568 7.376 16.1008 7.128 16.3888 6.92C16.6768 6.712 16.9808 6.608 17.3008 6.608C17.7648 6.608 18.0848 6.712 18.2608 6.92C18.4528 7.128 18.5488 7.456 18.5488 7.904V12.224ZM28.2654 11.6C28.3934 11.68 28.6414 11.832 29.0094 12.056C29.3934 12.264 29.6494 12.512 29.7774 12.8C29.9054 13.088 29.9694 13.488 29.9694 14C29.9694 14.576 29.8014 15.088 29.4654 15.536C29.1294 15.968 28.6974 16.304 28.1694 16.544C27.7854 16.72 27.3134 16.856 26.7534 16.952C26.2094 17.048 25.7774 17.096 25.4574 17.096C25.1374 17.096 24.7214 17.048 24.2094 16.952C23.7134 16.856 23.3694 16.768 23.1774 16.688C22.6814 16.4 22.2494 16.048 21.8814 15.632C21.5294 15.216 21.3534 14.792 21.3534 14.36C21.3534 14.04 21.4574 13.792 21.6654 13.616C21.8734 13.424 22.1454 13.328 22.4814 13.328C22.6414 13.328 22.8094 13.392 22.9854 13.52C23.1614 13.632 23.2814 13.752 23.3454 13.88C23.5214 14.296 23.8174 14.608 24.2334 14.816C24.6494 15.024 25.0734 15.128 25.5054 15.128C26.0654 15.128 26.5854 15.04 27.0654 14.864C27.5454 14.672 27.7854 14.416 27.7854 14.096C27.7854 13.952 27.7454 13.84 27.6654 13.76C27.6014 13.664 27.5054 13.568 27.3774 13.472C27.1534 13.312 26.8174 13.184 26.3694 13.088C25.9214 12.976 25.6334 12.904 25.5054 12.872C24.8494 12.728 24.2094 12.512 23.5854 12.224C22.9614 11.92 22.4654 11.56 22.0974 11.144C21.7294 10.728 21.5454 10.192 21.5454 9.536C21.5454 9.104 21.7054 8.656 22.0254 8.192C22.3454 7.712 22.7054 7.376 23.1054 7.184C23.3934 7.072 23.8734 6.952 24.5454 6.824C25.2334 6.696 25.6974 6.632 25.9374 6.632C26.3054 6.632 26.7054 6.672 27.1374 6.752C27.5694 6.816 27.8974 6.928 28.1214 7.088C28.5534 7.344 28.9054 7.616 29.1774 7.904C29.4494 8.176 29.5854 8.488 29.5854 8.84C29.5854 9.016 29.5454 9.208 29.4654 9.416C29.3854 9.608 29.2894 9.728 29.1774 9.776C28.9374 9.888 28.6574 9.944 28.3374 9.944C28.1934 9.944 28.0734 9.904 27.9774 9.824C27.8974 9.744 27.7854 9.616 27.6414 9.44C27.4654 9.168 27.2974 9.008 27.1374 8.96C26.9454 8.912 26.6654 8.856 26.2974 8.792C25.9294 8.712 25.6814 8.672 25.5534 8.672C25.1854 8.672 24.8014 8.776 24.4014 8.984C24.0174 9.192 23.8254 9.432 23.8254 9.704C23.8254 9.848 23.8814 9.96 23.9934 10.04C24.1214 10.12 24.2494 10.192 24.3774 10.256C24.5214 10.32 24.6174 10.36 24.6654 10.376C25.0014 10.536 25.3694 10.672 25.7694 10.784C26.1854 10.896 26.4414 10.968 26.5374 11C27.4014 11.208 27.9774 11.408 28.2654 11.6ZM33.2649 6.584C34.3209 6.584 34.8489 7.28 34.8489 8.672C34.8489 8.848 34.8329 9.24 34.8009 9.848C34.7689 10.552 34.7529 11.104 34.7529 11.504C34.7529 12.624 34.9049 13.528 35.2089 14.216C35.3209 14.44 35.5209 14.616 35.8089 14.744C36.1129 14.872 36.3689 14.936 36.5769 14.936C36.8969 14.936 37.1609 14.896 37.3689 14.816C37.5769 14.736 37.7689 14.616 37.9449 14.456C38.1369 14.296 38.3209 14.12 38.4969 13.928C38.8009 13.592 38.9929 13.208 39.0729 12.776C39.1689 12.328 39.2249 11.736 39.2409 11C39.2409 10.536 39.2649 10.088 39.3129 9.656C39.4089 8.952 39.4569 8.296 39.4569 7.688C39.4569 7.352 39.5449 7.072 39.7209 6.848C39.9129 6.608 40.1849 6.488 40.5369 6.488C40.7129 6.488 40.9209 6.552 41.1609 6.68C41.4169 6.792 41.5849 6.92 41.6649 7.064C41.7769 7.256 41.8329 7.52 41.8329 7.856C41.8329 8.064 41.8089 8.256 41.7609 8.432C41.6809 8.672 41.6409 8.976 41.6409 9.344C41.6409 9.536 41.6569 9.856 41.6889 10.304C41.7369 10.64 41.7609 10.984 41.7609 11.336C41.7609 12.408 41.8409 13.2 42.0009 13.712C42.1769 14.256 42.4169 14.736 42.7209 15.152C43.0409 15.488 43.2569 15.736 43.3689 15.896C43.4809 16.04 43.5369 16.168 43.5369 16.28C43.5369 16.472 43.4409 16.656 43.2489 16.832C43.0569 17.008 42.8569 17.096 42.6489 17.096C42.0569 17.096 41.5369 16.896 41.0889 16.496C40.6569 16.08 40.3369 15.552 40.1289 14.912C39.9529 15.12 39.7209 15.376 39.4329 15.68C39.1449 15.984 38.8729 16.232 38.6169 16.424C37.9929 16.872 37.1929 17.096 36.2169 17.096C35.8169 17.096 35.3769 16.976 34.8969 16.736C34.4329 16.496 34.0089 16.184 33.6249 15.8C33.2409 15.4 32.9769 14.976 32.8329 14.528C32.8169 14.496 32.7689 14.368 32.6889 14.144C32.6249 13.92 32.5929 13.584 32.5929 13.136L32.5689 9.296C32.5689 9.072 32.5129 8.72 32.4009 8.24C32.3049 7.92 32.2569 7.68 32.2569 7.52C32.2569 7.248 32.3449 7.024 32.5209 6.848C32.7129 6.672 32.9609 6.584 33.2649 6.584ZM56.2305 15.848C56.2305 16.2 56.0385 16.496 55.6545 16.736C55.2705 16.976 54.9185 17.096 54.5985 17.096C54.0065 17.096 53.5265 17.024 53.1585 16.88C52.8065 16.72 52.4705 16.432 52.1505 16.016C51.7505 16.384 51.1905 16.664 50.4705 16.856C49.7505 17.032 49.0865 17.12 48.4785 17.12C47.4865 17.12 46.6625 16.856 46.0065 16.328C45.3665 15.784 45.0465 14.992 45.0465 13.952C45.0465 13.504 45.1825 13.056 45.4545 12.608C45.7265 12.144 46.0625 11.776 46.4625 11.504C46.8945 11.216 47.3825 11.024 47.9265 10.928C48.4705 10.816 49.1025 10.76 49.8225 10.76C50.1585 10.76 50.5585 10.824 51.0225 10.952C51.4865 11.08 51.8545 11.216 52.1265 11.36V10.976C52.1265 10.112 51.9105 9.52 51.4785 9.2C51.0625 8.864 50.3905 8.696 49.4625 8.696C49.1745 8.696 48.9105 8.744 48.6705 8.84C48.4465 8.92 48.1825 9.04 47.8785 9.2C47.5905 9.36 47.3185 9.44 47.0625 9.44C46.8385 9.44 46.6225 9.352 46.4145 9.176C46.2065 8.984 46.1025 8.784 46.1025 8.576C46.1025 7.904 46.5185 7.416 47.3505 7.112C48.1985 6.792 49.0625 6.632 49.9425 6.632C50.3905 6.632 50.9025 6.728 51.4785 6.92C52.0545 7.096 52.5425 7.344 52.9425 7.664C53.4225 8.064 53.7905 8.544 54.0465 9.104C54.3185 9.664 54.4545 10.272 54.4545 10.928C54.4545 11.136 54.4385 11.448 54.4065 11.864C54.3745 12.312 54.3585 12.696 54.3585 13.016L54.3345 13.664C54.3025 14.016 54.2865 14.296 54.2865 14.504C54.2865 14.696 54.3505 14.864 54.4785 15.008C54.6225 15.136 54.7905 15.2 54.9825 15.2L55.6545 15.176C55.8305 15.176 55.9665 15.248 56.0625 15.392C56.1745 15.52 56.2305 15.672 56.2305 15.848ZM48.4785 15.224C49.1665 15.224 49.7425 15.152 50.2065 15.008C50.6705 14.864 51.2305 14.6 51.8865 14.216C51.9505 13.944 51.9905 13.584 52.0065 13.136C51.1265 12.72 50.3985 12.512 49.8225 12.512C49.2785 12.512 48.8385 12.536 48.5025 12.584C48.1665 12.616 47.8625 12.752 47.5905 12.992C47.3185 13.232 47.1825 13.616 47.1825 14.144C47.1825 14.448 47.3265 14.704 47.6145 14.912C47.9185 15.12 48.2065 15.224 48.4785 15.224ZM60.4678 13.28C60.4678 13.888 60.5558 14.36 60.7318 14.696C60.9238 15.016 61.1638 15.176 61.4518 15.176C61.6118 15.176 61.7638 15.168 61.9078 15.152C62.0518 15.12 62.1958 15.104 62.3398 15.104C62.4998 15.104 62.6358 15.184 62.7478 15.344C62.8758 15.504 62.9398 15.68 62.9398 15.872C62.9398 16.256 62.7558 16.56 62.3878 16.784C62.0358 16.992 61.5558 17.096 60.9478 17.096C60.5158 17.096 60.0758 16.968 59.6278 16.712C59.1958 16.44 58.8358 16.024 58.5478 15.464C58.2598 14.888 58.1158 14.176 58.1158 13.328C58.1158 11.504 58.1478 9.96 58.2118 8.696C58.2918 7.192 58.3318 5.296 58.3318 3.008C58.3318 2.288 58.3718 1.784 58.4518 1.496C58.5478 1.272 58.6998 1.104 58.9078 0.991999C59.1318 0.863999 59.3638 0.8 59.6038 0.8C59.8438 0.8 60.0518 0.84 60.2278 0.92C60.4198 1 60.5478 1.128 60.6118 1.304C60.6758 1.496 60.7158 1.688 60.7318 1.88C60.7638 2.056 60.7798 2.312 60.7798 2.648C60.7798 3.304 60.7558 3.936 60.7078 4.544C60.6758 5.28 60.6598 5.816 60.6598 6.152C60.5318 8.968 60.4678 11.344 60.4678 13.28ZM82.1353 3.68C82.3753 3.968 82.5433 4.2 82.6393 4.376C82.7353 4.552 82.7833 4.72 82.7833 4.88C82.7833 5.072 82.6553 5.296 82.3993 5.552C82.1593 5.808 81.9193 5.936 81.6793 5.936C81.3593 5.936 81.1033 5.888 80.9113 5.792C80.7193 5.696 80.5593 5.544 80.4313 5.336C80.1753 4.952 79.8633 4.624 79.4953 4.352C79.1273 4.064 78.5513 3.92 77.7673 3.92C77.0953 3.92 76.3273 4.072 75.4633 4.376C74.6153 4.68 74.0073 5.056 73.6393 5.504C73.3193 5.904 73.0393 6.512 72.7993 7.328C72.5753 8.144 72.4633 8.936 72.4633 9.704C72.4633 10.632 72.6633 11.488 73.0633 12.272C73.4793 13.04 74.0713 13.656 74.8393 14.12C75.6233 14.584 76.5593 14.816 77.6473 14.816C78.2393 14.816 78.8473 14.704 79.4713 14.48C80.1113 14.24 80.6633 13.856 81.1273 13.328H81.1033C81.3913 13.024 81.7513 12.872 82.1833 12.872C82.4393 12.872 82.6793 12.984 82.9033 13.208C83.1433 13.432 83.2633 13.656 83.2633 13.88C83.2633 14.12 83.2233 14.336 83.1433 14.528C83.0793 14.704 82.9513 14.904 82.7593 15.128C82.1033 15.864 81.3273 16.368 80.4313 16.64C79.5353 16.912 78.4633 17.048 77.2153 17.048C76.1113 17.048 74.9913 16.784 73.8553 16.256C72.7353 15.728 71.8713 15.088 71.2633 14.336C70.9433 13.872 70.6313 13.208 70.3273 12.344C70.0393 11.464 69.8953 10.752 69.8953 10.208C69.8953 8.816 70.1033 7.496 70.5193 6.248C70.9513 4.984 71.5913 3.976 72.4393 3.224C72.9993 2.712 73.8073 2.328 74.8633 2.072C75.9193 1.816 76.8873 1.688 77.7673 1.688C78.8393 1.688 79.6793 1.84 80.2873 2.144C80.9113 2.432 81.5273 2.944 82.1353 3.68ZM94.8932 9.296C95.0212 9.52 95.1252 9.848 95.2052 10.28C95.2852 10.696 95.3252 11.072 95.3252 11.408C95.3252 12.032 95.1892 12.92 94.9172 14.072C93.8132 16.088 92.1812 17.096 90.0212 17.096C89.2212 17.096 88.4052 16.832 87.5732 16.304C86.7412 15.776 86.1652 15.168 85.8452 14.48C85.4132 13.104 85.1972 12.232 85.1972 11.864C85.1972 11.224 85.3332 10.544 85.6052 9.824C85.8932 9.104 86.2532 8.48 86.6852 7.952C86.9572 7.584 87.4452 7.272 88.1492 7.016C88.8532 6.744 89.4932 6.608 90.0692 6.608C91.1892 6.608 92.1412 6.824 92.9252 7.256C93.7092 7.672 94.3652 8.352 94.8932 9.296ZM92.8052 13.16C92.8852 12.952 92.9252 12.416 92.9252 11.552C92.9252 11.088 92.8372 10.632 92.6612 10.184C92.5012 9.736 92.2612 9.352 91.9412 9.032C91.9092 9 91.8212 8.952 91.6772 8.888C91.5332 8.808 91.3332 8.736 91.0772 8.672C90.8372 8.592 90.5572 8.552 90.2372 8.552C89.3412 8.552 88.6852 8.912 88.2692 9.632C87.8532 10.352 87.6452 11.168 87.6452 12.08C87.6452 12.24 87.6852 12.544 87.7652 12.992C87.8612 13.44 87.9412 13.72 88.0052 13.832C88.0532 13.944 88.1732 14.104 88.3652 14.312C88.5732 14.504 88.8212 14.68 89.1092 14.84C89.4132 14.984 89.7252 15.056 90.0452 15.056C90.7652 15.056 91.3412 14.888 91.7732 14.552C92.2052 14.2 92.5492 13.736 92.8052 13.16ZM107.246 1.976C107.246 2.136 107.222 2.336 107.174 2.576C107.158 2.672 107.142 2.776 107.126 2.888C107.11 3 107.094 3.136 107.078 3.296C106.934 4.736 106.862 6.52 106.862 8.648C106.862 10.664 106.95 12.16 107.126 13.136C107.302 14.112 107.574 14.696 107.942 14.888L108.398 15.08C108.638 15.16 108.814 15.248 108.926 15.344C109.054 15.44 109.118 15.6 109.118 15.824C109.118 16.144 108.95 16.424 108.614 16.664C108.278 16.888 107.91 17 107.51 17C107.094 17 106.686 16.832 106.286 16.496C105.886 16.144 105.558 15.704 105.302 15.176C105.03 15.752 104.55 16.216 103.862 16.568C103.174 16.904 102.518 17.072 101.894 17.072C101.334 17.072 100.846 17 100.43 16.856C100.014 16.696 99.5824 16.456 99.1344 16.136C98.5904 15.752 98.1744 15.264 97.8864 14.672C97.6144 14.08 97.4784 13.432 97.4784 12.728C97.4784 12.024 97.6144 11.28 97.8864 10.496C98.1584 9.696 98.4704 9.04 98.8224 8.528C99.2384 7.936 99.7904 7.496 100.478 7.208C101.166 6.904 101.878 6.752 102.614 6.752C103.03 6.752 103.39 6.832 103.694 6.992C103.998 7.136 104.31 7.344 104.63 7.616C104.63 6.816 104.614 6.144 104.582 5.6C104.566 5.456 104.558 5.288 104.558 5.096C104.558 3.72 104.67 2.632 104.894 1.832C105.07 1.16 105.494 0.823999 106.166 0.823999C106.534 0.823999 106.806 0.903999 106.982 1.064C107.158 1.224 107.246 1.528 107.246 1.976ZM99.8064 12.68C99.8064 13.496 100.07 14.12 100.598 14.552C100.838 14.776 101.038 14.928 101.198 15.008C101.358 15.088 101.558 15.128 101.798 15.128C102.262 15.128 102.702 15 103.118 14.744C103.55 14.472 103.886 14.12 104.126 13.688C104.382 13.256 104.51 12.792 104.51 12.296L104.486 9.92C104.15 9.536 103.838 9.272 103.55 9.128C103.278 8.968 102.99 8.888 102.686 8.888C101.662 8.888 100.958 9.28 100.574 10.064C100.366 10.432 100.182 10.848 100.022 11.312C99.8784 11.776 99.8064 12.232 99.8064 12.68ZM110.485 11.504C110.485 10.528 110.701 9.72 111.133 9.08C111.565 8.424 112.165 7.808 112.933 7.232C113.157 7.072 113.533 6.936 114.061 6.824C114.589 6.696 115.053 6.632 115.453 6.632C115.933 6.632 116.437 6.736 116.965 6.944C117.509 7.136 117.949 7.36 118.285 7.616C118.877 8.048 119.285 8.552 119.509 9.128C119.733 9.688 119.845 10.36 119.845 11.144C119.845 11.48 119.653 11.808 119.269 12.128C118.901 12.432 118.501 12.584 118.069 12.584L117.157 12.56C116.693 12.56 116.029 12.576 115.165 12.608L114.661 12.632C114.309 12.664 114.045 12.68 113.869 12.68C113.613 12.68 113.261 12.648 112.813 12.584C112.877 13.336 113.157 13.928 113.653 14.36C114.149 14.776 114.685 14.984 115.261 14.984C116.269 14.984 116.973 14.784 117.373 14.384C117.709 14.144 117.933 13.992 118.045 13.928C118.157 13.864 118.333 13.832 118.573 13.832C118.829 13.832 119.053 13.952 119.245 14.192C119.437 14.432 119.533 14.672 119.533 14.912C119.533 15.184 119.365 15.464 119.029 15.752C118.709 16.024 118.269 16.312 117.709 16.616C117.405 16.744 116.989 16.856 116.461 16.952C115.933 17.048 115.493 17.096 115.141 17.096C114.581 17.096 113.957 16.936 113.269 16.616C112.581 16.28 112.069 15.912 111.733 15.512C111.397 15.112 111.101 14.544 110.845 13.808C110.605 13.072 110.485 12.304 110.485 11.504ZM115.261 10.856C116.397 10.856 117.229 10.816 117.757 10.736C117.725 10.272 117.581 9.896 117.325 9.608C117.069 9.304 116.717 9.048 116.269 8.84C116.125 8.776 115.997 8.728 115.885 8.696C115.773 8.664 115.645 8.648 115.501 8.648C114.765 8.648 114.141 8.848 113.629 9.248C113.133 9.648 112.837 10.16 112.741 10.784C113.541 10.832 114.381 10.856 115.261 10.856Z" fill="white"/>
</svg>
