<svg width="40" height="17" viewBox="0 0 40 17" fill="none" xmlns="http://www.w3.org/2000/svg">
<path d="M3.072 1.48C3.664 3.24 4.336 5.176 5.088 7.288C5.84 9.384 6.528 11.2 7.152 12.736C7.616 11.248 8.256 9.464 9.072 7.384C9.888 5.288 10.648 3.4 11.352 1.72C11.56 1.224 11.912 0.975999 12.408 0.975999C12.872 0.975999 13.224 1.072 13.464 1.264C13.704 1.44 13.824 1.752 13.824 2.2C13.824 2.376 13.8 2.528 13.752 2.656C13.704 2.784 13.632 2.952 13.536 3.16C13.04 4.136 12.544 5.264 12.048 6.544C11.552 7.808 10.944 9.416 10.224 11.368C10.256 11.288 10.032 11.888 9.552 13.168L8.76 15.232C8.664 15.488 8.504 15.688 8.28 15.832C8.072 15.96 7.832 16.024 7.56 16.024C7.288 16.024 6.984 15.96 6.648 15.832C6.328 15.688 6.096 15.544 5.952 15.4C5.408 14.36 4.712 12.856 3.864 10.888C3.032 8.92 2.312 7.104 1.704 5.44L1.344 4.456C1.104 3.784 0.928 3.272 0.816 2.92C0.704 2.552 0.648 2.256 0.648 2.032C0.648 1.712 0.824 1.456 1.176 1.264C1.544 1.072 1.896 0.975999 2.232 0.975999C2.408 0.975999 2.576 1.016 2.736 1.096C2.896 1.176 3.008 1.304 3.072 1.48ZM16.6288 0.592C17.1888 0.639999 17.6768 0.791999 18.0928 1.048C18.5088 1.288 18.7168 1.656 18.7168 2.152C18.7168 2.52 18.5408 2.816 18.1888 3.04C17.8528 3.248 17.4448 3.352 16.9648 3.352C16.5008 3.352 16.1808 3.232 16.0048 2.992C15.8288 2.752 15.7408 2.504 15.7408 2.248C15.7408 1.768 15.7888 1.368 15.8848 1.048C15.9968 0.728 16.2448 0.576 16.6288 0.592ZM18.5488 11.224V11.92C18.5488 12.544 18.5648 13.136 18.5968 13.696C18.6448 14.24 18.7008 14.792 18.7648 15.352C18.7488 15.512 18.6288 15.68 18.4048 15.856C18.1808 16.016 17.9808 16.096 17.8048 16.096C17.5008 16.096 17.1888 16.04 16.8688 15.928C16.5648 15.8 16.3808 15.648 16.3168 15.472C16.2208 14.96 16.1728 14.504 16.1728 14.104C16.1728 12.792 16.1328 11.32 16.0528 9.688C15.9888 8.248 15.9568 7.24 15.9568 6.664C15.9568 6.376 16.1008 6.128 16.3888 5.92C16.6768 5.712 16.9808 5.608 17.3008 5.608C17.7648 5.608 18.0848 5.712 18.2608 5.92C18.4528 6.128 18.5488 6.456 18.5488 6.904V11.224ZM21.5454 7.696C21.3214 7.664 21.1374 7.568 20.9934 7.408C20.8654 7.248 20.8014 7.056 20.8014 6.832C20.8014 6.72 20.8254 6.6 20.8734 6.472C20.9374 6.344 21.0254 6.232 21.1374 6.136C21.3454 5.928 21.9054 5.824 22.8174 5.824C22.9454 5.2 23.0094 4.568 23.0094 3.928C23.0094 3.688 23.0014 3.48 22.9854 3.304C22.9694 3.128 22.9614 2.992 22.9614 2.896C22.9614 2.544 23.0894 2.28 23.3454 2.104C23.6174 1.928 23.9214 1.84 24.2574 1.84C24.6734 1.84 24.9534 1.944 25.0974 2.152C25.2574 2.36 25.3374 2.744 25.3374 3.304C25.3374 4.136 25.2654 4.952 25.1214 5.752C25.3774 5.752 25.7294 5.736 26.1774 5.704C26.7854 5.672 27.2254 5.656 27.4974 5.656C27.7694 5.656 28.0014 5.728 28.1934 5.872C28.4014 6 28.5054 6.184 28.5054 6.424C28.5054 7.048 28.2254 7.416 27.6654 7.528C27.0734 7.672 26.1534 7.76 24.9054 7.792C24.8574 8.416 24.8334 9.096 24.8334 9.832C24.8334 10.984 24.9054 11.928 25.0494 12.664C25.1454 13.176 25.3054 13.552 25.5294 13.792C25.7694 14.016 26.1214 14.128 26.5854 14.128C26.8574 14.128 27.1374 14.056 27.4254 13.912C27.6174 13.8 27.7934 13.744 27.9534 13.744C28.1774 13.744 28.3374 13.816 28.4334 13.96C28.5454 14.104 28.6014 14.296 28.6014 14.536C28.6014 14.984 28.3614 15.36 27.8814 15.664C27.4014 15.952 26.7854 16.096 26.0334 16.096C25.5694 16.096 25.0974 15.984 24.6174 15.76C24.1534 15.536 23.7614 15.256 23.4414 14.92C23.3934 14.872 23.3054 14.688 23.1774 14.368C23.0494 14.048 22.9374 13.704 22.8414 13.336C22.6814 12.584 22.6014 11.528 22.6014 10.168C22.6014 9.576 22.6334 8.784 22.6974 7.792L21.5454 7.696ZM30.3289 10.504C30.3289 9.528 30.5449 8.72 30.9769 8.08C31.4089 7.424 32.0089 6.808 32.7769 6.232C33.0009 6.072 33.3769 5.936 33.9049 5.824C34.4329 5.696 34.8969 5.632 35.2969 5.632C35.7769 5.632 36.2809 5.736 36.8089 5.944C37.3529 6.136 37.7929 6.36 38.1289 6.616C38.7209 7.048 39.1289 7.552 39.3529 8.128C39.5769 8.688 39.6889 9.36 39.6889 10.144C39.6889 10.48 39.4969 10.808 39.1129 11.128C38.7449 11.432 38.3449 11.584 37.9129 11.584L37.0009 11.56C36.5369 11.56 35.8729 11.576 35.0089 11.608L34.5049 11.632C34.1529 11.664 33.8889 11.68 33.7129 11.68C33.4569 11.68 33.1049 11.648 32.6569 11.584C32.7209 12.336 33.0009 12.928 33.4969 13.36C33.9929 13.776 34.5289 13.984 35.1049 13.984C36.1129 13.984 36.8169 13.784 37.2169 13.384C37.5529 13.144 37.7769 12.992 37.8889 12.928C38.0009 12.864 38.1769 12.832 38.4169 12.832C38.6729 12.832 38.8969 12.952 39.0889 13.192C39.2809 13.432 39.3769 13.672 39.3769 13.912C39.3769 14.184 39.2089 14.464 38.8729 14.752C38.5529 15.024 38.1129 15.312 37.5529 15.616C37.2489 15.744 36.8329 15.856 36.3049 15.952C35.7769 16.048 35.3369 16.096 34.9849 16.096C34.4249 16.096 33.8009 15.936 33.1129 15.616C32.4249 15.28 31.9129 14.912 31.5769 14.512C31.2409 14.112 30.9449 13.544 30.6889 12.808C30.4489 12.072 30.3289 11.304 30.3289 10.504ZM35.1049 9.856C36.2409 9.856 37.0729 9.816 37.6009 9.736C37.5689 9.272 37.4249 8.896 37.1689 8.608C36.9129 8.304 36.5609 8.048 36.1129 7.84C35.9689 7.776 35.8409 7.728 35.7289 7.696C35.6169 7.664 35.4889 7.648 35.3449 7.648C34.6089 7.648 33.9849 7.848 33.4729 8.248C32.9769 8.648 32.6809 9.16 32.5849 9.784C33.3849 9.832 34.2249 9.856 35.1049 9.856Z" fill="white"/>
</svg>
